<svg xmlns="http://www.w3.org/2000/svg" xmlns:xlink="http://www.w3.org/1999/xlink" xmlns:lucid="lucid" width="1981.04" height="1045"><g transform="translate(0 0)" lucid:page-tab-id="0_0"><path d="M276.34 207.34h160v80h-160z" stroke="#000" stroke-width="2" fill="#fff"/><use xlink:href="#a" transform="matrix(1,0,0,1,281.33962264150944,212.33962264150944) translate(11.099999999999994 38.6)"/><path d="M756.34 207.34h160v80h-160z" stroke="#000" stroke-width="2" fill="#fff"/><use xlink:href="#b" transform="matrix(1,0,0,1,761.3396226415094,212.33962264150944) translate(10.525000000000006 38.6)"/><path d="M36.34 367.34h160v80h-160z" stroke="#000" stroke-width="2" fill="#c1e4f7"/><use xlink:href="#c" transform="matrix(1,0,0,1,41.339622641509436,372.33962264150944) translate(7.549999999999997 38.6)"/><path d="M476.34 367.34h200v80h-200z" stroke="#000" stroke-width="2" fill="#c1e4f7"/><use xlink:href="#d" transform="matrix(1,0,0,1,481.33962264150944,372.33962264150944) translate(1.5750000000000028 38.6)"/><path d="M356.34 306.58v20.76h-240v39" stroke="#000" stroke-width="2" fill="none"/><path d="M360.97 305.84h-9.27l4.64-14.26z"/><path d="M362.35 306.84h-12.02l6-18.5zm-9.27-2h6.52l-3.26-10.03zM117.34 367.34h-2v-1h2z"/><path d="M356.34 306.58v20.76h220v39" stroke="#000" stroke-width="2" fill="none"/><path d="M360.97 305.84h-9.27l4.64-14.26z"/><path d="M362.35 306.84h-12.02l6-18.5zm-9.27-2h6.52l-3.26-10.03zM577.34 367.34h-2v-1h2z"/><path d="M771.68 367.02h128.68v80H771.68z" stroke="#000" stroke-width="2" fill="#c1e4f7"/><use xlink:href="#e" transform="matrix(1,0,0,1,776.6792452830189,372.0188679245283) translate(15.524999999999999 38.6)"/><path d="M836.34 306.58v20.6h-.32v38.84" stroke="#000" stroke-width="2" fill="none"/><path d="M840.97 305.84h-9.27l4.64-14.26z"/><path d="M842.35 306.84h-12.02l6-18.5zm-9.27-2h6.52l-3.26-10.03zM837.02 367.02h-2v-1h2z"/><path d="M36.34 627.34h160v80h-160z" stroke="#000" stroke-width="2" fill="#fff"/><use xlink:href="#f" transform="matrix(1,0,0,1,41.339622641509436,632.3396226415094) translate(51.525 38.6)"/><path d="M116.34 466.58v159.76" stroke="#000" stroke-width="2" fill="none"/><path d="M120.97 465.84h-9.27l4.64-14.26z"/><path d="M122.35 466.84h-12.02l6-18.5zm-9.27-2h6.52l-3.26-10.03zM117.34 627.34h-2v-1h2z"/><path d="M496.34 627.34h160v80h-160z" stroke="#000" stroke-width="2" fill="#fff"/><use xlink:href="#g" transform="matrix(1,0,0,1,501.33962264150944,632.3396226415094) translate(25.549999999999997 38.6)"/><path d="M576.34 466.58v159.76" stroke="#000" stroke-width="2" fill="none"/><path d="M580.97 465.84h-9.27l4.64-14.26z"/><path d="M582.35 466.84h-12.02l6-18.5zm-9.27-2h6.52l-3.26-10.03zM577.34 627.34h-2v-1h2z"/><path d="M36.34 767.34h160v80h-160z" stroke="#000" stroke-width="2" fill="#fff"/><path d="M52.34 767.34v80m128-80v80" stroke="#000" stroke-width="2" fill="none"/><use xlink:href="#h" transform="matrix(1,0,0,1,61.339622641509436,772.3396226415094) translate(31.7 27.799999999999997)"/><use xlink:href="#i" transform="matrix(1,0,0,1,61.339622641509436,772.3396226415094) translate(17.025 49.4)"/><path d="M117.34 766.34h-2v-8.7h2zm0-30.3h-2v-9.46h2zM117.34 767.34h-2v-1h2zM120.97 725.84h-9.27l4.64-14.26z"/><path d="M122.35 726.84h-12.02l6-18.5zm-9.27-2h6.52l-3.26-10.03z"/><use xlink:href="#j" transform="matrix(1,0,0,1,70.88962264150943,736.0364779874214) translate(0 14.4)"/><path d="M496.34 767.34h160v80h-160z" stroke="#000" stroke-width="2" fill="#fff"/><path d="M512.34 767.34v80m128-80v80" stroke="#000" stroke-width="2" fill="none"/><use xlink:href="#k" transform="matrix(1,0,0,1,521.3396226415094,772.3396226415094) translate(5.549999999999997 27.799999999999997)"/><use xlink:href="#i" transform="matrix(1,0,0,1,521.3396226415094,772.3396226415094) translate(17.025 49.4)"/><path d="M577.34 766.34h-2v-8.7h2zm0-30.3h-2v-9.46h2zM577.34 767.34h-2v-1h2zM580.97 725.84h-9.27l4.64-14.26z"/><path d="M582.35 726.84h-12.02l6-18.5zm-9.27-2h6.52l-3.26-10.03z"/><use xlink:href="#j" transform="matrix(1,0,0,1,530.8896226415094,736.0364779874214) translate(0 14.4)"/><path d="M316.86 808.34H197.34v-2h119.52zm160.24 0H375.8v-2h101.3zM197.34 808.34h-1v-2h1zM492.1 807.34l-14.26 4.63v-9.27z"/><path d="M495.34 807.34l-18.5 6v-12zm-16.5 3.26l10.03-3.26-10.03-3.26z"/><use xlink:href="#l" transform="matrix(1,0,0,1,316.8646226415094,796.5396226415095) translate(0 14.4)"/><path d="M756.34 767.34h160v80h-160z" stroke="#000" stroke-width="2" fill="#fff"/><path d="M772.34 767.34v80m128-80v80" stroke="#000" stroke-width="2" fill="none"/><use xlink:href="#m" transform="matrix(1,0,0,1,781.3396226415094,772.3396226415094) translate(12.024999999999999 27.799999999999997)"/><use xlink:href="#n" transform="matrix(1,0,0,1,781.3396226415094,772.3396226415094) translate(21.525 49.4)"/><path d="M837.34 766.34h-2V754.8h2zm-.32-160.16h.32V733.2h-2V608.18h-.32V466.25h2zM837.34 767.34h-2v-1h2zM840.65 465.52h-9.27l4.64-14.27z"/><path d="M842.03 466.52H830l6.02-18.5zm-9.27-2h6.52l-3.26-10.03z"/><use xlink:href="#j" transform="matrix(1,0,0,1,790.8896226415094,733.2000566501267) translate(0 14.4)"/><path d="M164.02 927.02c17.67 0 32 17.9 32 40s-14.33 40-32 40h-96c-17.67 0-32-17.9-32-40s14.33-40 32-40z" stroke="#000" stroke-width="2" fill="#fff"/><use xlink:href="#o" transform="matrix(1,0,0,1,41.01886792452831,932.0188679245283) translate(24.074999999999996 38.6)"/><use xlink:href="#p" transform="matrix(1,0,0,1,41.01886792452831,932.0188679245283) translate(66.975 38.6)"/><path d="M94.7 926.02v-38.84h-.23v-20.6" stroke="#000" stroke-width="2" fill="none"/><path d="M95.7 927.02h-2v-1h2zM99.1 865.84h-9.26l4.63-14.26z"/><path d="M100.48 866.84H88.46l6-18.5zm-9.27-2h6.53l-3.26-10.03z"/><path d="M624.34 927.34c17.67 0 32 17.9 32 40s-14.33 40-32 40h-96c-17.67 0-32-17.9-32-40s14.33-40 32-40z" stroke="#000" stroke-width="2" fill="#fff"/><use xlink:href="#o" transform="matrix(1,0,0,1,501.33962264150944,932.3396226415094) translate(11.099999999999994 38.6)"/><use xlink:href="#q" transform="matrix(1,0,0,1,501.33962264150944,932.3396226415094) translate(54 38.6)"/><path d="M576.34 926.34v-59.76" stroke="#000" stroke-width="2" fill="none"/><path d="M577.34 927.34h-2v-1h2zM580.97 865.84h-9.27l4.64-14.26z"/><path d="M582.35 866.84h-12.02l6-18.5zm-9.27-2h6.52l-3.26-10.03z"/><path d="M576.34 926.34v-39h221.52v-20.76" stroke="#000" stroke-width="2" fill="none"/><path d="M577.34 927.34h-2v-1h2zM802.5 865.84h-9.28l4.64-14.26z"/><path d="M803.87 866.84h-12.02l6-18.5zm-9.27-2h6.52l-3.26-10.03zM140.57 886.34h436.77v40h-2v-38H138.57v-21.76h2zM577.34 927.34h-2v-1h2zM144.2 865.84h-9.26l4.63-14.26z"/><path d="M145.58 866.84h-12.02l6-18.5zm-9.27-2h6.53l-3.26-10.03z"/><path d="M644.34 47.34c17.67 0 32 17.9 32 40s-14.33 40-32 40h-96c-17.67 0-32-17.9-32-40s14.33-40 32-40z" stroke="#000" stroke-width="2" fill="#fff"/><use xlink:href="#r" transform="matrix(1,0,0,1,521.3396226415094,52.339622641509436) translate(33.55 38.6)"/><path d="M356.34 206.34v-39h240v-20.76" stroke="#000" stroke-width="2" fill="none"/><path d="M357.34 207.34h-2v-1h2zM600.97 145.84h-9.27l4.64-14.26z"/><path d="M602.35 146.84h-12.02l6-18.5zm-9.27-2h6.52l-3.26-10.03z"/><path d="M836.34 206.34v-39h-240v-20.76" stroke="#000" stroke-width="2" fill="none"/><path d="M837.34 207.34h-2v-1h2zM600.97 145.84h-9.27l4.64-14.26z"/><path d="M602.35 146.84h-12.02l6-18.5zm-9.27-2h6.52l-3.26-10.03z"/><path d="M1096.02 367.02h160v80h-160z" stroke="#000" stroke-width="2" fill="#c7e8ac"/><use xlink:href="#s" transform="matrix(1,0,0,1,1101.0188679245282,372.0188679245283) translate(3.5999999999999943 38.6)"/><path d="M932.74 408.02h-31.38v-2h31.38zm144.04 0h-13.14v-2h13.14zM901.36 408.02h-1v-2h1zM1091.78 407.02l-14.26 4.63v-9.27z"/><path d="M1095.02 407.02l-18.5 6v-12zm-16.5 3.26l10.03-3.26-10.03-3.26z"/><use xlink:href="#t" transform="matrix(1,0,0,1,932.7386791037735,396.2188679245283) translate(0 14.4)"/><use xlink:href="#n" transform="matrix(1,0,0,1,932.7386791037735,396.2188679245283) translate(63.95 14.4)"/><path d="M1096.02 467.18h260v80h-260z" stroke="#000" stroke-width="2" fill="#c7e8ac"/><use xlink:href="#u" transform="matrix(1,0,0,1,1101.0188679245282,472.1792452830189) translate(4.150000000000006 38.6)"/><path d="M637.34 506.18H932.7v2H635.34v-59.84h2zm439.44 0v2h-13.18v-2zM637.34 448.34h-2v-1h2zM1091.78 507.18l-14.26 4.63v-9.26z"/><path d="M1095.02 507.18l-18.5 6v-12zm-16.5 3.26l10.03-3.26-10.03-3.26z"/><use xlink:href="#t" transform="matrix(1,0,0,1,932.6977987421382,496.37924528301886) translate(0 14.4)"/><use xlink:href="#n" transform="matrix(1,0,0,1,932.6977987421382,496.37924528301886) translate(63.95 14.4)"/><path d="M1096.02 567.02h220v80h-220z" stroke="#000" stroke-width="2" fill="#c7e8ac"/><use xlink:href="#v" transform="matrix(1,0,0,1,1101.0188679245282,572.0188679245283) translate(10.125 38.6)"/><path d="M157.34 606.02h772.4v2h-774.4V448.34h2zm919.44 0v2h-16.14v-2zM157.34 448.34h-2v-1h2zM1091.78 607.02l-14.26 4.63v-9.27z"/><path d="M1095.02 607.02l-18.5 6v-12zm-16.5 3.26l10.03-3.26-10.03-3.26z"/><use xlink:href="#t" transform="matrix(1,0,0,1,929.7353792683776,596.2188679245284) translate(0 14.4)"/><use xlink:href="#n" transform="matrix(1,0,0,1,929.7353792683776,596.2188679245284) translate(63.95 14.4)"/><path d="M1445.02 367.02h200v80.32h-200z" stroke="#000" stroke-width="2" fill="#fff"/><use xlink:href="#w" transform="matrix(1,0,0,1,1450.0188679245282,372.0188679245283) translate(3.0999999999999943 39.1)"/><path d="M1257.02 407.02h93.5v.16h75.26" stroke="#000" stroke-width="2" fill="none"/><path d="M1257.02 408.02h-1v-2h1zM1440.78 407.18l-14.26 4.63v-9.26z"/><path d="M1444.02 407.18l-18.5 6v-12zm-16.5 3.26l10.03-3.26-10.03-3.26z"/><path d="M1636.34 467.34c33.14 0 60 17.9 60 40s-26.86 40-60 40h-180c-33.14 0-60-17.9-60-40s26.86-40 60-40z" stroke="#000" stroke-width="2" fill="#fff"/><use xlink:href="#x" transform="matrix(1,0,0,1,1401.3396226415093,472.33962264150944) translate(3.6500000000000057 38.6)"/><path d="M1357.02 507.18h19.16v.16h.92" stroke="#000" stroke-width="2" fill="none"/><path d="M1357.02 508.18h-1v-2h1zM1392.1 507.34l-14.26 4.63v-9.27z"/><path d="M1395.34 507.34l-18.5 6v-12zm-16.5 3.26l10.03-3.26-10.03-3.26z"/><path d="M1636.34 567.34c33.14 0 60 17.9 60 40s-26.86 40-60 40h-180c-33.14 0-60-17.9-60-40s26.86-40 60-40z" stroke="#000" stroke-width="2" fill="#fff"/><use xlink:href="#y" transform="matrix(1,0,0,1,1401.3396226415093,572.3396226415094) translate(29.625 38.6)"/><path d="M1317.02 607.02h39.16v.32h20.92" stroke="#000" stroke-width="2" fill="none"/><path d="M1317.02 608.02h-1v-2h1zM1392.1 607.34l-14.26 4.63v-9.27z"/><path d="M1395.34 607.34l-18.5 6v-12zm-16.5 3.26l10.03-3.26-10.03-3.26z"/><path d="M1096.02 767.02h160v80h-160z" stroke="#000" stroke-width="2" fill="#c7e8ac"/><use xlink:href="#z" transform="matrix(1,0,0,1,1101.0188679245282,772.0188679245283) translate(10.099999999999994 38.6)"/><path d="M1096.02 927.02h160v80h-160z" stroke="#000" stroke-width="2" fill="#c7e8ac"/><use xlink:href="#A" transform="matrix(1,0,0,1,1101.0188679245282,932.0188679245283) translate(9.649999999999991 38.6)"/><path d="M667.33 968.34h-10v-2h10zm29.96 0h-20v-2h20zm29.95 0h-19.98v-2h19.98zm29.96 0h-19.97v-2h19.98zm13 0h-3v-2h3zm106.85 0h-19.98v-2h19.98zm29.96 0h-19.97v-2H907zm29.97 0H917v-2h19.97zm29.96 0h-19.97v-2h19.97zm29.96 0H976.9v-2h19.97zm29.95 0h-19.97v-2h19.97zm29.96 0h-19.96v-2h19.97zm19.98 0h-9.98v-2h9.98zm-229.7 0h-19.03v-2h19.04z"/><path d="M657.34 968.34h-1.06l.06-1-.04-1h1.04zM1091.78 967.34l-14.26 4.63v-9.27z"/><path d="M1095.02 967.34l-18.5 6v-12zm-16.5 3.26l10.03-3.26-10.03-3.26zM667.5 968.34h-10.16v-2h10.17zm30.53 0h-20.35v-2h20.35zm30.5 0H708.2v-2h20.34zm30.52 0H738.7v-2h20.35zm11.15 0h-.98v-2h.98zm80.4 0h-20.35v-2h20.34zm30.5 0h-20.33v-2h20.34zm30.52 0h-20.34v-2h20.34zm30.52 0H921.8v-2h20.34zm30.5 0h-20.33v-2h20.35zm13.38 0h-3.2v-2h1.2V949.2h2zm0-29.32h-2v-20.34h2zm0-30.5h-2v-20.35h2zm0-30.52h-2v-20.35h2zm0-30.52h-2v-20.34h2zm9.4-39.46H986v8.95h-2v-10.95h11.4zm30.5 0h-20.34v-2h20.35zm30.52 0h-20.34v-2h20.34zm20.34 0h-10.17v-2h10.18zM657.34 968.34h-1.06l.06-1-.04-1h1.04zM1091.78 807.02l-14.26 4.63v-9.27z"/><path d="M1095.02 807.02l-18.5 6v-12zm-16.5 3.26l10.03-3.26-10.03-3.26z"/><use xlink:href="#B" transform="matrix(1,0,0,1,770.199392852203,956.5396226415095) translate(0 14.4)"/><path d="M1446.02 767.02h200v80h-200z" stroke="#000" stroke-width="2" fill="#fff"/><use xlink:href="#C" transform="matrix(1,0,0,1,1451.0188679245282,772.0188679245283) translate(9.599999999999994 38.6)"/><path d="M1446.02 927.02h200v80h-200z" stroke="#000" stroke-width="2" fill="#fff"/><use xlink:href="#D" transform="matrix(1,0,0,1,1451.0188679245282,932.0188679245283) translate(9.150000000000006 38.6)"/><path d="M1257.02 967.02h169.76" stroke="#000" stroke-width="2" fill="none"/><path d="M1257.02 968.02h-1v-2h1zM1441.78 967.02l-14.26 4.63v-9.27z"/><path d="M1445.02 967.02l-18.5 6v-12zm-16.5 3.26l10.03-3.26-10.03-3.26z"/><path d="M1257.02 807.02h169.76" stroke="#000" stroke-width="2" fill="none"/><path d="M1257.02 808.02h-1v-2h1zM1441.78 807.02l-14.26 4.63v-9.27z"/><path d="M1445.02 807.02l-18.5 6v-12zm-16.5 3.26l10.03-3.26-10.03-3.26z"/><path d="M1791 45.42h160v53.2h-160z" stroke="#000" stroke-width="2" fill="#c1e4f7"/><use xlink:href="#E" transform="matrix(1,0,0,1,1796,50.41886792452831) translate(13.049999999999997 25.6)"/><path d="M1791.32 116.02h160v53.2h-160z" stroke="#000" stroke-width="2" fill="#c7e8ac"/><use xlink:href="#F" transform="matrix(1,0,0,1,1796.3207547169814,121.01886792452831) translate(34.574999999999996 14.799999999999999)"/><use xlink:href="#G" transform="matrix(1,0,0,1,1796.3207547169814,121.01886792452831) translate(101.475 14.799999999999999)"/><use xlink:href="#H" transform="matrix(1,0,0,1,1796.3207547169814,121.01886792452831) translate(0.07499999999998863 36.4)"/><use xlink:href="#I" transform="matrix(1,0,0,1,1796.3207547169814,121.01886792452831) translate(82.02499999999999 36.4)"/><path d="M1700 36.02h80v140h-80z" fill="none"/><path d="M1780 176.02c-4.83 0-8.75-3.92-8.75-8.75v-52.5c0-4.83-3.92-8.75-8.75-8.75 4.83 0 8.75-3.92 8.75-8.75v-52.5c0-4.83 3.92-8.75 8.75-8.75" stroke="#000" stroke-width="2" fill="none"/><use xlink:href="#J" transform="matrix(1,0,0,1,1705,41.01886792452831) translate(6.5 68.60000000000001)"/><path d="M1913.02 267.02c17.67 0 32 17.9 32 40s-14.33 40-32 40h-96c-17.67 0-32-17.9-32-40s14.33-40 32-40z" stroke="#000" stroke-width="2" fill="#fff"/><use xlink:href="#K" transform="matrix(1,0,0,1,1790.0188679245282,272.0188679245283) translate(6.674999999999997 38.6)"/><path d="M1913.02 367.02c17.67 0 32 17.9 32 40s-14.33 40-32 40h-96c-17.67 0-32-17.9-32-40s14.33-40 32-40z" stroke="#000" stroke-width="2" fill="#fff"/><use xlink:href="#L" transform="matrix(1,0,0,1,1790.0188679245282,372.0188679245283) translate(8 38.6)"/><path d="M1647.02 967.02h88v-560h30.76" stroke="#000" stroke-width="2" fill="none"/><path d="M1647.02 968.02h-1v-2h1zM1780.78 407.02l-14.26 4.63v-9.27z"/><path d="M1784.02 407.02l-18.5 6v-12zm-16.5 3.26l10.03-3.26-10.03-3.26z"/><path d="M1647.02 807.02h88v-400h30.76" stroke="#000" stroke-width="2" fill="none"/><path d="M1647.02 808.02h-1v-2h1zM1780.78 407.02l-14.26 4.63v-9.27z"/><path d="M1784.02 407.02l-18.5 6v-12zm-16.5 3.26l10.03-3.26-10.03-3.26z"/><path d="M1646.02 407.18h119.77" stroke="#000" stroke-width="2" fill="none"/><path d="M1646.02 408.18h-1v-2h1zM1780.8 407.18l-14.28 4.63v-9.26z"/><path d="M1784.02 407.18l-18.5 6v-12zm-16.5 3.26l10.03-3.26-10.03-3.26z"/><path d="M1545.02 366.02v-59h220.76" stroke="#000" stroke-width="2" fill="none"/><path d="M1546.02 367.02h-2v-1h2zM1780.78 307.02l-14.26 4.63v-9.27z"/><path d="M1784.02 307.02l-18.5 6v-12zm-16.5 3.26l10.03-3.26-10.03-3.26z"/><defs><path d="M30 0v-248h187v28H63v79h144v27H63v87h162V0H30" id="M"/><path d="M141 0L90-78 38 0H4l68-98-65-92h35l48 74 47-74h35l-64 92 68 98h-35" id="N"/><path d="M59-47c-2 24 18 29 38 22v24C64 9 27 4 27-40v-127H5v-23h24l9-43h21v43h35v23H59v120" id="O"/><path d="M100-194c63 0 86 42 84 106H49c0 40 14 67 53 68 26 1 43-12 49-29l28 8c-11 28-37 45-77 45C44 4 14-33 15-96c1-61 26-98 85-98zm52 81c6-60-76-77-97-28-3 7-6 17-6 28h103" id="P"/><path d="M117-194c89-4 53 116 60 194h-32v-121c0-31-8-49-39-48C34-167 62-67 57 0H25l-1-190h30c1 10-1 24 2 32 11-22 29-35 61-36" id="Q"/><path d="M135-143c-3-34-86-38-87 0 15 53 115 12 119 90S17 21 10-45l28-5c4 36 97 45 98 0-10-56-113-15-118-90-4-57 82-63 122-42 12 7 21 19 24 35" id="R"/><path d="M24-231v-30h32v30H24zM24 0v-190h32V0H24" id="S"/><path d="M115-194c53 0 69 39 70 98 0 66-23 100-70 100C84 3 66-7 56-30L54 0H23l1-261h32v101c10-23 28-34 59-34zm-8 174c40 0 45-34 45-75 0-40-5-75-45-74-42 0-51 32-51 76 0 43 10 73 51 73" id="T"/><path d="M24 0v-261h32V0H24" id="U"/><path d="M212-179c-10-28-35-45-73-45-59 0-87 40-87 99 0 60 29 101 89 101 43 0 62-24 78-52l27 14C228-24 195 4 139 4 59 4 22-46 18-125c-6-104 99-153 187-111 19 9 31 26 39 46" id="V"/><path d="M141-36C126-15 110 5 73 4 37 3 15-17 15-53c-1-64 63-63 125-63 3-35-9-54-41-54-24 1-41 7-42 31l-33-3c5-37 33-52 76-52 45 0 72 20 72 64v82c-1 20 7 32 28 27v20c-31 9-61-2-59-35zM48-53c0 20 12 33 32 33 41-3 63-29 60-74-43 2-92-5-92 41" id="W"/><g id="a"><use transform="matrix(0.05,0,0,0.05,0,0)" xlink:href="#M"/><use transform="matrix(0.05,0,0,0.05,12,0)" xlink:href="#N"/><use transform="matrix(0.05,0,0,0.05,21,0)" xlink:href="#O"/><use transform="matrix(0.05,0,0,0.05,26,0)" xlink:href="#P"/><use transform="matrix(0.05,0,0,0.05,36,0)" xlink:href="#Q"/><use transform="matrix(0.05,0,0,0.05,46,0)" xlink:href="#R"/><use transform="matrix(0.05,0,0,0.05,55,0)" xlink:href="#S"/><use transform="matrix(0.05,0,0,0.05,58.95,0)" xlink:href="#T"/><use transform="matrix(0.05,0,0,0.05,68.95,0)" xlink:href="#U"/><use transform="matrix(0.05,0,0,0.05,72.9,0)" xlink:href="#P"/><use transform="matrix(0.05,0,0,0.05,82.9,0)" xlink:href="#V"/><use transform="matrix(0.05,0,0,0.05,95.85000000000001,0)" xlink:href="#U"/><use transform="matrix(0.05,0,0,0.05,99.80000000000001,0)" xlink:href="#W"/><use transform="matrix(0.05,0,0,0.05,109.80000000000001,0)" xlink:href="#R"/><use transform="matrix(0.05,0,0,0.05,118.80000000000001,0)" xlink:href="#R"/></g><path d="M100-194c62-1 85 37 85 99 1 63-27 99-86 99S16-35 15-95c0-66 28-99 85-99zM99-20c44 1 53-31 53-75 0-43-8-75-51-75s-53 32-53 75 10 74 51 75" id="X"/><path d="M160-131c35 5 61 23 61 61C221 17 115-2 30 0v-248c76 3 177-17 177 60 0 33-19 50-47 57zm-97-11c50-1 110 9 110-42 0-47-63-36-110-37v79zm0 115c55-2 124 14 124-45 0-56-70-42-124-44v89" id="Y"/><g id="b"><use transform="matrix(0.05,0,0,0.05,0,0)" xlink:href="#M"/><use transform="matrix(0.05,0,0,0.05,12,0)" xlink:href="#N"/><use transform="matrix(0.05,0,0,0.05,21,0)" xlink:href="#O"/><use transform="matrix(0.05,0,0,0.05,26,0)" xlink:href="#P"/><use transform="matrix(0.05,0,0,0.05,36,0)" xlink:href="#Q"/><use transform="matrix(0.05,0,0,0.05,46,0)" xlink:href="#R"/><use transform="matrix(0.05,0,0,0.05,55,0)" xlink:href="#S"/><use transform="matrix(0.05,0,0,0.05,58.95,0)" xlink:href="#X"/><use transform="matrix(0.05,0,0,0.05,68.95,0)" xlink:href="#Q"/><use transform="matrix(0.05,0,0,0.05,78.95,0)" xlink:href="#R"/><use transform="matrix(0.05,0,0,0.05,87.95,0)" xlink:href="#Y"/><use transform="matrix(0.05,0,0,0.05,99.95,0)" xlink:href="#W"/><use transform="matrix(0.05,0,0,0.05,109.95,0)" xlink:href="#R"/><use transform="matrix(0.05,0,0,0.05,118.95,0)" xlink:href="#P"/></g><path d="M30 0v-248h33v221h125V0H30" id="Z"/><path d="M30-248c118-7 216 8 213 122C240-48 200 0 122 0H30v-248zM63-27c89 8 146-16 146-99s-60-101-146-95v194" id="aa"/><path d="M205 0l-28-72H64L36 0H1l101-248h38L239 0h-34zm-38-99l-47-123c-12 45-31 82-46 123h93" id="ab"/><path d="M30-248c87 1 191-15 191 75 0 78-77 80-158 76V0H30v-248zm33 125c57 0 124 11 124-50 0-59-68-47-124-48v98" id="ac"/><g id="c"><use transform="matrix(0.05,0,0,0.05,0,0)" xlink:href="#Z"/><use transform="matrix(0.05,0,0,0.05,10,0)" xlink:href="#aa"/><use transform="matrix(0.05,0,0,0.05,22.950000000000003,0)" xlink:href="#ab"/><use transform="matrix(0.05,0,0,0.05,34.95,0)" xlink:href="#ac"/><use transform="matrix(0.05,0,0,0.05,46.95,0)" xlink:href="#M"/><use transform="matrix(0.05,0,0,0.05,58.95,0)" xlink:href="#N"/><use transform="matrix(0.05,0,0,0.05,67.95,0)" xlink:href="#O"/><use transform="matrix(0.05,0,0,0.05,72.95,0)" xlink:href="#P"/><use transform="matrix(0.05,0,0,0.05,82.95,0)" xlink:href="#Q"/><use transform="matrix(0.05,0,0,0.05,92.95,0)" xlink:href="#R"/><use transform="matrix(0.05,0,0,0.05,101.95,0)" xlink:href="#S"/><use transform="matrix(0.05,0,0,0.05,105.9,0)" xlink:href="#X"/><use transform="matrix(0.05,0,0,0.05,115.9,0)" xlink:href="#Q"/><use transform="matrix(0.05,0,0,0.05,125.9,0)" xlink:href="#R"/></g><path d="M140-251c81 0 123 46 123 126C263-46 219 4 140 4 59 4 17-45 17-125s42-126 123-126zm0 227c63 0 89-41 89-101s-29-99-89-99c-61 0-89 39-89 99S79-25 140-24" id="ad"/><path d="M24-231v-30h32v30H24zM-9 49c24 4 33-6 33-30v-209h32V24c2 40-23 58-65 49V49" id="ae"/><path d="M96-169c-40 0-48 33-48 73s9 75 48 75c24 0 41-14 43-38l32 2c-6 37-31 61-74 61-59 0-76-41-82-99-10-93 101-131 147-64 4 7 5 14 7 22l-32 3c-4-21-16-35-41-35" id="af"/><g id="d"><use transform="matrix(0.05,0,0,0.05,0,0)" xlink:href="#Z"/><use transform="matrix(0.05,0,0,0.05,10,0)" xlink:href="#aa"/><use transform="matrix(0.05,0,0,0.05,22.950000000000003,0)" xlink:href="#ab"/><use transform="matrix(0.05,0,0,0.05,34.95,0)" xlink:href="#ac"/><use transform="matrix(0.05,0,0,0.05,46.95,0)" xlink:href="#ad"/><use transform="matrix(0.05,0,0,0.05,60.95,0)" xlink:href="#T"/><use transform="matrix(0.05,0,0,0.05,70.95,0)" xlink:href="#ae"/><use transform="matrix(0.05,0,0,0.05,74.9,0)" xlink:href="#P"/><use transform="matrix(0.05,0,0,0.05,84.9,0)" xlink:href="#af"/><use transform="matrix(0.05,0,0,0.05,93.9,0)" xlink:href="#O"/><use transform="matrix(0.05,0,0,0.05,98.9,0)" xlink:href="#M"/><use transform="matrix(0.05,0,0,0.05,110.9,0)" xlink:href="#N"/><use transform="matrix(0.05,0,0,0.05,119.9,0)" xlink:href="#O"/><use transform="matrix(0.05,0,0,0.05,124.9,0)" xlink:href="#P"/><use transform="matrix(0.05,0,0,0.05,134.9,0)" xlink:href="#Q"/><use transform="matrix(0.05,0,0,0.05,144.9,0)" xlink:href="#R"/><use transform="matrix(0.05,0,0,0.05,153.9,0)" xlink:href="#S"/><use transform="matrix(0.05,0,0,0.05,157.85,0)" xlink:href="#X"/><use transform="matrix(0.05,0,0,0.05,167.85,0)" xlink:href="#Q"/><use transform="matrix(0.05,0,0,0.05,177.85,0)" xlink:href="#R"/></g><g id="e"><use transform="matrix(0.05,0,0,0.05,0,0)" xlink:href="#M"/><use transform="matrix(0.05,0,0,0.05,12,0)" xlink:href="#N"/><use transform="matrix(0.05,0,0,0.05,21,0)" xlink:href="#O"/><use transform="matrix(0.05,0,0,0.05,26,0)" xlink:href="#P"/><use transform="matrix(0.05,0,0,0.05,36,0)" xlink:href="#Q"/><use transform="matrix(0.05,0,0,0.05,46,0)" xlink:href="#R"/><use transform="matrix(0.05,0,0,0.05,55,0)" xlink:href="#S"/><use transform="matrix(0.05,0,0,0.05,58.95,0)" xlink:href="#X"/><use transform="matrix(0.05,0,0,0.05,68.95,0)" xlink:href="#Q"/><use transform="matrix(0.05,0,0,0.05,78.95,0)" xlink:href="#R"/></g><g id="f"><use transform="matrix(0.05,0,0,0.05,0,0)" xlink:href="#Z"/><use transform="matrix(0.05,0,0,0.05,10,0)" xlink:href="#aa"/><use transform="matrix(0.05,0,0,0.05,22.950000000000003,0)" xlink:href="#ab"/><use transform="matrix(0.05,0,0,0.05,34.95,0)" xlink:href="#ac"/></g><g id="g"><use transform="matrix(0.05,0,0,0.05,0,0)" xlink:href="#Z"/><use transform="matrix(0.05,0,0,0.05,10,0)" xlink:href="#aa"/><use transform="matrix(0.05,0,0,0.05,22.950000000000003,0)" xlink:href="#ab"/><use transform="matrix(0.05,0,0,0.05,34.95,0)" xlink:href="#ac"/><use transform="matrix(0.05,0,0,0.05,46.95,0)" xlink:href="#ad"/><use transform="matrix(0.05,0,0,0.05,60.95,0)" xlink:href="#T"/><use transform="matrix(0.05,0,0,0.05,70.95,0)" xlink:href="#ae"/><use transform="matrix(0.05,0,0,0.05,74.9,0)" xlink:href="#P"/><use transform="matrix(0.05,0,0,0.05,84.9,0)" xlink:href="#af"/><use transform="matrix(0.05,0,0,0.05,93.9,0)" xlink:href="#O"/></g><g id="h"><use transform="matrix(0.05,0,0,0.05,0,0)" xlink:href="#Z"/><use transform="matrix(0.05,0,0,0.05,10,0)" xlink:href="#aa"/><use transform="matrix(0.05,0,0,0.05,22.950000000000003,0)" xlink:href="#ab"/><use transform="matrix(0.05,0,0,0.05,34.95,0)" xlink:href="#ac"/></g><g id="i"><use transform="matrix(0.05,0,0,0.05,0,0)" xlink:href="#S"/><use transform="matrix(0.05,0,0,0.05,3.95,0)" xlink:href="#Q"/><use transform="matrix(0.05,0,0,0.05,13.949999999999998,0)" xlink:href="#R"/><use transform="matrix(0.05,0,0,0.05,22.95,0)" xlink:href="#O"/><use transform="matrix(0.05,0,0,0.05,27.950000000000003,0)" xlink:href="#W"/><use transform="matrix(0.05,0,0,0.05,37.95,0)" xlink:href="#Q"/><use transform="matrix(0.05,0,0,0.05,47.95,0)" xlink:href="#af"/><use transform="matrix(0.05,0,0,0.05,56.95,0)" xlink:href="#P"/><use transform="matrix(0.05,0,0,0.05,66.95,0)" xlink:href="#R"/></g><g id="j"><use transform="matrix(0.05,0,0,0.05,0,0)" xlink:href="#S"/><use transform="matrix(0.05,0,0,0.05,3.95,0)" xlink:href="#Q"/><use transform="matrix(0.05,0,0,0.05,13.949999999999998,0)" xlink:href="#R"/><use transform="matrix(0.05,0,0,0.05,22.95,0)" xlink:href="#O"/><use transform="matrix(0.05,0,0,0.05,27.950000000000003,0)" xlink:href="#W"/><use transform="matrix(0.05,0,0,0.05,37.95,0)" xlink:href="#Q"/><use transform="matrix(0.05,0,0,0.05,47.95,0)" xlink:href="#O"/><use transform="matrix(0.05,0,0,0.05,52.95,0)" xlink:href="#S"/><use transform="matrix(0.05,0,0,0.05,56.900000000000006,0)" xlink:href="#W"/><use transform="matrix(0.05,0,0,0.05,66.9,0)" xlink:href="#O"/><use transform="matrix(0.05,0,0,0.05,71.9,0)" xlink:href="#P"/><use transform="matrix(0.05,0,0,0.05,81.9,0)" xlink:href="#R"/></g><g id="k"><use transform="matrix(0.05,0,0,0.05,0,0)" xlink:href="#Z"/><use transform="matrix(0.05,0,0,0.05,10,0)" xlink:href="#aa"/><use transform="matrix(0.05,0,0,0.05,22.950000000000003,0)" xlink:href="#ab"/><use transform="matrix(0.05,0,0,0.05,34.95,0)" xlink:href="#ac"/><use transform="matrix(0.05,0,0,0.05,46.95,0)" xlink:href="#ad"/><use transform="matrix(0.05,0,0,0.05,60.95,0)" xlink:href="#T"/><use transform="matrix(0.05,0,0,0.05,70.95,0)" xlink:href="#ae"/><use transform="matrix(0.05,0,0,0.05,74.9,0)" xlink:href="#P"/><use transform="matrix(0.05,0,0,0.05,84.9,0)" xlink:href="#af"/><use transform="matrix(0.05,0,0,0.05,93.9,0)" xlink:href="#O"/></g><path d="M114-163C36-179 61-72 57 0H25l-1-190h30c1 12-1 29 2 39 6-27 23-49 58-41v29" id="ag"/><g id="l"><use transform="matrix(0.05,0,0,0.05,0,0)" xlink:href="#af"/><use transform="matrix(0.05,0,0,0.05,9,0)" xlink:href="#ag"/><use transform="matrix(0.05,0,0,0.05,14.949999999999998,0)" xlink:href="#P"/><use transform="matrix(0.05,0,0,0.05,24.95,0)" xlink:href="#W"/><use transform="matrix(0.05,0,0,0.05,34.95,0)" xlink:href="#O"/><use transform="matrix(0.05,0,0,0.05,39.95,0)" xlink:href="#P"/><use transform="matrix(0.05,0,0,0.05,49.95,0)" xlink:href="#R"/></g><g id="m"><use transform="matrix(0.05,0,0,0.05,0,0)" xlink:href="#P"/><use transform="matrix(0.05,0,0,0.05,10,0)" xlink:href="#N"/><use transform="matrix(0.05,0,0,0.05,19,0)" xlink:href="#O"/><use transform="matrix(0.05,0,0,0.05,24,0)" xlink:href="#P"/><use transform="matrix(0.05,0,0,0.05,34,0)" xlink:href="#Q"/><use transform="matrix(0.05,0,0,0.05,44,0)" xlink:href="#R"/><use transform="matrix(0.05,0,0,0.05,53,0)" xlink:href="#S"/><use transform="matrix(0.05,0,0,0.05,56.95,0)" xlink:href="#X"/><use transform="matrix(0.05,0,0,0.05,66.95,0)" xlink:href="#Q"/><use transform="matrix(0.05,0,0,0.05,76.95,0)" xlink:href="#R"/></g><g id="n"><use transform="matrix(0.05,0,0,0.05,0,0)" xlink:href="#S"/><use transform="matrix(0.05,0,0,0.05,3.95,0)" xlink:href="#Q"/><use transform="matrix(0.05,0,0,0.05,13.949999999999998,0)" xlink:href="#R"/><use transform="matrix(0.05,0,0,0.05,22.95,0)" xlink:href="#O"/><use transform="matrix(0.05,0,0,0.05,27.950000000000003,0)" xlink:href="#W"/><use transform="matrix(0.05,0,0,0.05,37.95,0)" xlink:href="#Q"/><use transform="matrix(0.05,0,0,0.05,47.95,0)" xlink:href="#af"/><use transform="matrix(0.05,0,0,0.05,56.95,0)" xlink:href="#P"/></g><path d="M232-93c-1 65-40 97-104 97C67 4 28-28 28-90v-158h33c8 89-33 224 67 224 102 0 64-133 71-224h33v155" id="ah"/><g id="o"><use transform="matrix(0.05,0,0,0.05,0,0)" xlink:href="#ah"/><use transform="matrix(0.05,0,0,0.05,12.950000000000001,0)" xlink:href="#R"/><use transform="matrix(0.05,0,0,0.05,21.950000000000003,0)" xlink:href="#P"/><use transform="matrix(0.05,0,0,0.05,31.950000000000003,0)" xlink:href="#ag"/></g><g id="p"><use transform="matrix(0.05,0,0,0.05,0,0)" xlink:href="#af"/><use transform="matrix(0.05,0,0,0.05,9,0)" xlink:href="#ag"/><use transform="matrix(0.05,0,0,0.05,14.949999999999998,0)" xlink:href="#P"/><use transform="matrix(0.05,0,0,0.05,24.95,0)" xlink:href="#W"/><use transform="matrix(0.05,0,0,0.05,34.95,0)" xlink:href="#O"/><use transform="matrix(0.05,0,0,0.05,39.95,0)" xlink:href="#P"/><use transform="matrix(0.05,0,0,0.05,49.95,0)" xlink:href="#R"/></g><path d="M101-234c-31-9-42 10-38 44h38v23H63V0H32v-167H5v-23h27c-7-52 17-82 69-68v24" id="ai"/><g id="q"><use transform="matrix(0.05,0,0,0.05,0,0)" xlink:href="#ag"/><use transform="matrix(0.05,0,0,0.05,5.95,0)" xlink:href="#P"/><use transform="matrix(0.05,0,0,0.05,15.949999999999998,0)" xlink:href="#ai"/><use transform="matrix(0.05,0,0,0.05,20.95,0)" xlink:href="#P"/><use transform="matrix(0.05,0,0,0.05,30.950000000000003,0)" xlink:href="#ag"/><use transform="matrix(0.05,0,0,0.05,36.9,0)" xlink:href="#P"/><use transform="matrix(0.05,0,0,0.05,46.9,0)" xlink:href="#Q"/><use transform="matrix(0.05,0,0,0.05,56.900000000000006,0)" xlink:href="#af"/><use transform="matrix(0.05,0,0,0.05,65.9,0)" xlink:href="#P"/><use transform="matrix(0.05,0,0,0.05,75.9,0)" xlink:href="#R"/></g><g id="r"><use transform="matrix(0.05,0,0,0.05,0,0)" xlink:href="#M"/><use transform="matrix(0.05,0,0,0.05,12,0)" xlink:href="#N"/><use transform="matrix(0.05,0,0,0.05,21,0)" xlink:href="#O"/><use transform="matrix(0.05,0,0,0.05,26,0)" xlink:href="#P"/><use transform="matrix(0.05,0,0,0.05,36,0)" xlink:href="#Q"/><use transform="matrix(0.05,0,0,0.05,46,0)" xlink:href="#R"/><use transform="matrix(0.05,0,0,0.05,55,0)" xlink:href="#S"/><use transform="matrix(0.05,0,0,0.05,58.95,0)" xlink:href="#T"/><use transform="matrix(0.05,0,0,0.05,68.95,0)" xlink:href="#U"/><use transform="matrix(0.05,0,0,0.05,72.9,0)" xlink:href="#P"/></g><path d="M84 4C-5 8 30-112 23-190h32v120c0 31 7 50 39 49 72-2 45-101 50-169h31l1 190h-30c-1-10 1-25-2-33-11 22-28 36-60 37" id="aj"/><g id="s"><use transform="matrix(0.05,0,0,0.05,0,0)" xlink:href="#Z"/><use transform="matrix(0.05,0,0,0.05,10,0)" xlink:href="#W"/><use transform="matrix(0.05,0,0,0.05,20,0)" xlink:href="#aj"/><use transform="matrix(0.05,0,0,0.05,30,0)" xlink:href="#ag"/><use transform="matrix(0.05,0,0,0.05,35.95,0)" xlink:href="#P"/><use transform="matrix(0.05,0,0,0.05,45.95,0)" xlink:href="#U"/><use transform="matrix(0.05,0,0,0.05,49.900000000000006,0)" xlink:href="#S"/><use transform="matrix(0.05,0,0,0.05,53.85,0)" xlink:href="#Q"/><use transform="matrix(0.05,0,0,0.05,63.85,0)" xlink:href="#M"/><use transform="matrix(0.05,0,0,0.05,75.85000000000001,0)" xlink:href="#N"/><use transform="matrix(0.05,0,0,0.05,84.85000000000001,0)" xlink:href="#O"/><use transform="matrix(0.05,0,0,0.05,89.85000000000001,0)" xlink:href="#P"/><use transform="matrix(0.05,0,0,0.05,99.85000000000001,0)" xlink:href="#Q"/><use transform="matrix(0.05,0,0,0.05,109.85000000000001,0)" xlink:href="#R"/><use transform="matrix(0.05,0,0,0.05,118.85000000000001,0)" xlink:href="#S"/><use transform="matrix(0.05,0,0,0.05,122.80000000000001,0)" xlink:href="#X"/><use transform="matrix(0.05,0,0,0.05,132.8,0)" xlink:href="#Q"/></g><g id="t"><use transform="matrix(0.05,0,0,0.05,0,0)" xlink:href="#af"/><use transform="matrix(0.05,0,0,0.05,9,0)" xlink:href="#ag"/><use transform="matrix(0.05,0,0,0.05,14.949999999999998,0)" xlink:href="#P"/><use transform="matrix(0.05,0,0,0.05,24.95,0)" xlink:href="#W"/><use transform="matrix(0.05,0,0,0.05,34.95,0)" xlink:href="#O"/><use transform="matrix(0.05,0,0,0.05,39.95,0)" xlink:href="#P"/><use transform="matrix(0.05,0,0,0.05,49.95,0)" xlink:href="#R"/></g><g id="u"><use transform="matrix(0.05,0,0,0.05,0,0)" xlink:href="#Z"/><use transform="matrix(0.05,0,0,0.05,10,0)" xlink:href="#W"/><use transform="matrix(0.05,0,0,0.05,20,0)" xlink:href="#aj"/><use transform="matrix(0.05,0,0,0.05,30,0)" xlink:href="#ag"/><use transform="matrix(0.05,0,0,0.05,35.95,0)" xlink:href="#P"/><use transform="matrix(0.05,0,0,0.05,45.95,0)" xlink:href="#U"/><use transform="matrix(0.05,0,0,0.05,49.900000000000006,0)" xlink:href="#S"/><use transform="matrix(0.05,0,0,0.05,53.85,0)" xlink:href="#Q"/><use transform="matrix(0.05,0,0,0.05,63.85,0)" xlink:href="#Z"/><use transform="matrix(0.05,0,0,0.05,73.85000000000001,0)" xlink:href="#aa"/><use transform="matrix(0.05,0,0,0.05,86.80000000000001,0)" xlink:href="#ab"/><use transform="matrix(0.05,0,0,0.05,98.80000000000001,0)" xlink:href="#ac"/><use transform="matrix(0.05,0,0,0.05,110.80000000000001,0)" xlink:href="#ad"/><use transform="matrix(0.05,0,0,0.05,124.80000000000001,0)" xlink:href="#T"/><use transform="matrix(0.05,0,0,0.05,134.8,0)" xlink:href="#ae"/><use transform="matrix(0.05,0,0,0.05,138.75,0)" xlink:href="#P"/><use transform="matrix(0.05,0,0,0.05,148.75,0)" xlink:href="#af"/><use transform="matrix(0.05,0,0,0.05,157.75,0)" xlink:href="#O"/><use transform="matrix(0.05,0,0,0.05,162.75,0)" xlink:href="#M"/><use transform="matrix(0.05,0,0,0.05,174.75,0)" xlink:href="#N"/><use transform="matrix(0.05,0,0,0.05,183.75,0)" xlink:href="#O"/><use transform="matrix(0.05,0,0,0.05,188.75,0)" xlink:href="#P"/><use transform="matrix(0.05,0,0,0.05,198.75,0)" xlink:href="#Q"/><use transform="matrix(0.05,0,0,0.05,208.75,0)" xlink:href="#R"/><use transform="matrix(0.05,0,0,0.05,217.75,0)" xlink:href="#S"/><use transform="matrix(0.05,0,0,0.05,221.69999999999996,0)" xlink:href="#X"/><use transform="matrix(0.05,0,0,0.05,231.69999999999996,0)" xlink:href="#Q"/></g><g id="v"><use transform="matrix(0.05,0,0,0.05,0,0)" xlink:href="#Z"/><use transform="matrix(0.05,0,0,0.05,10,0)" xlink:href="#W"/><use transform="matrix(0.05,0,0,0.05,20,0)" xlink:href="#aj"/><use transform="matrix(0.05,0,0,0.05,30,0)" xlink:href="#ag"/><use transform="matrix(0.05,0,0,0.05,35.95,0)" xlink:href="#P"/><use transform="matrix(0.05,0,0,0.05,45.95,0)" xlink:href="#U"/><use transform="matrix(0.05,0,0,0.05,49.900000000000006,0)" xlink:href="#S"/><use transform="matrix(0.05,0,0,0.05,53.85,0)" xlink:href="#Q"/><use transform="matrix(0.05,0,0,0.05,63.85,0)" xlink:href="#Z"/><use transform="matrix(0.05,0,0,0.05,73.85000000000001,0)" xlink:href="#aa"/><use transform="matrix(0.05,0,0,0.05,86.80000000000001,0)" xlink:href="#ab"/><use transform="matrix(0.05,0,0,0.05,98.80000000000001,0)" xlink:href="#ac"/><use transform="matrix(0.05,0,0,0.05,110.80000000000001,0)" xlink:href="#M"/><use transform="matrix(0.05,0,0,0.05,122.80000000000001,0)" xlink:href="#N"/><use transform="matrix(0.05,0,0,0.05,131.8,0)" xlink:href="#O"/><use transform="matrix(0.05,0,0,0.05,136.8,0)" xlink:href="#P"/><use transform="matrix(0.05,0,0,0.05,146.8,0)" xlink:href="#Q"/><use transform="matrix(0.05,0,0,0.05,156.8,0)" xlink:href="#R"/><use transform="matrix(0.05,0,0,0.05,165.8,0)" xlink:href="#S"/><use transform="matrix(0.05,0,0,0.05,169.75,0)" xlink:href="#X"/><use transform="matrix(0.05,0,0,0.05,179.75,0)" xlink:href="#Q"/></g><g id="w"><use transform="matrix(0.05,0,0,0.05,0,0)" xlink:href="#Y"/><use transform="matrix(0.05,0,0,0.05,12,0)" xlink:href="#W"/><use transform="matrix(0.05,0,0,0.05,22,0)" xlink:href="#R"/><use transform="matrix(0.05,0,0,0.05,31,0)" xlink:href="#P"/><use transform="matrix(0.05,0,0,0.05,41,0)" xlink:href="#Z"/><use transform="matrix(0.05,0,0,0.05,51,0)" xlink:href="#W"/><use transform="matrix(0.05,0,0,0.05,61,0)" xlink:href="#aj"/><use transform="matrix(0.05,0,0,0.05,71,0)" xlink:href="#ag"/><use transform="matrix(0.05,0,0,0.05,76.95,0)" xlink:href="#P"/><use transform="matrix(0.05,0,0,0.05,86.95,0)" xlink:href="#U"/><use transform="matrix(0.05,0,0,0.05,90.9,0)" xlink:href="#S"/><use transform="matrix(0.05,0,0,0.05,94.85000000000001,0)" xlink:href="#Q"/><use transform="matrix(0.05,0,0,0.05,104.85000000000001,0)" xlink:href="#M"/><use transform="matrix(0.05,0,0,0.05,116.85000000000001,0)" xlink:href="#N"/><use transform="matrix(0.05,0,0,0.05,125.85000000000001,0)" xlink:href="#O"/><use transform="matrix(0.05,0,0,0.05,130.85000000000002,0)" xlink:href="#P"/><use transform="matrix(0.05,0,0,0.05,140.85000000000002,0)" xlink:href="#Q"/><use transform="matrix(0.05,0,0,0.05,150.85000000000002,0)" xlink:href="#R"/><use transform="matrix(0.05,0,0,0.05,159.85000000000002,0)" xlink:href="#S"/><use transform="matrix(0.05,0,0,0.05,163.8,0)" xlink:href="#X"/><use transform="matrix(0.05,0,0,0.05,173.8,0)" xlink:href="#Q"/></g><g id="x"><use transform="matrix(0.05,0,0,0.05,0,0)" xlink:href="#Y"/><use transform="matrix(0.05,0,0,0.05,12,0)" xlink:href="#W"/><use transform="matrix(0.05,0,0,0.05,22,0)" xlink:href="#R"/><use transform="matrix(0.05,0,0,0.05,31,0)" xlink:href="#P"/><use transform="matrix(0.05,0,0,0.05,41,0)" xlink:href="#Z"/><use transform="matrix(0.05,0,0,0.05,51,0)" xlink:href="#W"/><use transform="matrix(0.05,0,0,0.05,61,0)" xlink:href="#aj"/><use transform="matrix(0.05,0,0,0.05,71,0)" xlink:href="#ag"/><use transform="matrix(0.05,0,0,0.05,76.95,0)" xlink:href="#P"/><use transform="matrix(0.05,0,0,0.05,86.95,0)" xlink:href="#U"/><use transform="matrix(0.05,0,0,0.05,90.9,0)" xlink:href="#S"/><use transform="matrix(0.05,0,0,0.05,94.85000000000001,0)" xlink:href="#Q"/><use transform="matrix(0.05,0,0,0.05,104.85000000000001,0)" xlink:href="#Z"/><use transform="matrix(0.05,0,0,0.05,114.85000000000001,0)" xlink:href="#aa"/><use transform="matrix(0.05,0,0,0.05,127.80000000000001,0)" xlink:href="#ab"/><use transform="matrix(0.05,0,0,0.05,139.8,0)" xlink:href="#ac"/><use transform="matrix(0.05,0,0,0.05,151.8,0)" xlink:href="#ad"/><use transform="matrix(0.05,0,0,0.05,165.8,0)" xlink:href="#T"/><use transform="matrix(0.05,0,0,0.05,175.8,0)" xlink:href="#ae"/><use transform="matrix(0.05,0,0,0.05,179.75,0)" xlink:href="#P"/><use transform="matrix(0.05,0,0,0.05,189.75,0)" xlink:href="#af"/><use transform="matrix(0.05,0,0,0.05,198.75,0)" xlink:href="#O"/><use transform="matrix(0.05,0,0,0.05,203.75,0)" xlink:href="#M"/><use transform="matrix(0.05,0,0,0.05,215.75,0)" xlink:href="#N"/><use transform="matrix(0.05,0,0,0.05,224.75,0)" xlink:href="#O"/><use transform="matrix(0.05,0,0,0.05,229.75,0)" xlink:href="#P"/><use transform="matrix(0.05,0,0,0.05,239.75,0)" xlink:href="#Q"/><use transform="matrix(0.05,0,0,0.05,249.75,0)" xlink:href="#R"/><use transform="matrix(0.05,0,0,0.05,258.75,0)" xlink:href="#S"/><use transform="matrix(0.05,0,0,0.05,262.7,0)" xlink:href="#X"/><use transform="matrix(0.05,0,0,0.05,272.7,0)" xlink:href="#Q"/></g><g id="y"><use transform="matrix(0.05,0,0,0.05,0,0)" xlink:href="#Y"/><use transform="matrix(0.05,0,0,0.05,12,0)" xlink:href="#W"/><use transform="matrix(0.05,0,0,0.05,22,0)" xlink:href="#R"/><use transform="matrix(0.05,0,0,0.05,31,0)" xlink:href="#P"/><use transform="matrix(0.05,0,0,0.05,41,0)" xlink:href="#Z"/><use transform="matrix(0.05,0,0,0.05,51,0)" xlink:href="#W"/><use transform="matrix(0.05,0,0,0.05,61,0)" xlink:href="#aj"/><use transform="matrix(0.05,0,0,0.05,71,0)" xlink:href="#ag"/><use transform="matrix(0.05,0,0,0.05,76.95,0)" xlink:href="#P"/><use transform="matrix(0.05,0,0,0.05,86.95,0)" xlink:href="#U"/><use transform="matrix(0.05,0,0,0.05,90.9,0)" xlink:href="#S"/><use transform="matrix(0.05,0,0,0.05,94.85000000000001,0)" xlink:href="#Q"/><use transform="matrix(0.05,0,0,0.05,104.85000000000001,0)" xlink:href="#Z"/><use transform="matrix(0.05,0,0,0.05,114.85000000000001,0)" xlink:href="#aa"/><use transform="matrix(0.05,0,0,0.05,127.80000000000001,0)" xlink:href="#ab"/><use transform="matrix(0.05,0,0,0.05,139.8,0)" xlink:href="#ac"/><use transform="matrix(0.05,0,0,0.05,151.8,0)" xlink:href="#M"/><use transform="matrix(0.05,0,0,0.05,163.8,0)" xlink:href="#N"/><use transform="matrix(0.05,0,0,0.05,172.8,0)" xlink:href="#O"/><use transform="matrix(0.05,0,0,0.05,177.8,0)" xlink:href="#P"/><use transform="matrix(0.05,0,0,0.05,187.8,0)" xlink:href="#R"/><use transform="matrix(0.05,0,0,0.05,196.8,0)" xlink:href="#Q"/><use transform="matrix(0.05,0,0,0.05,206.8,0)" xlink:href="#S"/><use transform="matrix(0.05,0,0,0.05,210.75,0)" xlink:href="#X"/><use transform="matrix(0.05,0,0,0.05,220.75,0)" xlink:href="#Q"/></g><path d="M185-189c-5-48-123-54-124 2 14 75 158 14 163 119 3 78-121 87-175 55-17-10-28-26-33-46l33-7c5 56 141 63 141-1 0-78-155-14-162-118-5-82 145-84 179-34 5 7 8 16 11 25" id="ak"/><path d="M106-169C34-169 62-67 57 0H25v-261h32l-1 103c12-21 28-36 61-36 89 0 53 116 60 194h-32v-121c2-32-8-49-39-48" id="al"/><path d="M210-169c-67 3-38 105-44 169h-31v-121c0-29-5-50-35-48C34-165 62-65 56 0H25l-1-190h30c1 10-1 24 2 32 10-44 99-50 107 0 11-21 27-35 58-36 85-2 47 119 55 194h-31v-121c0-29-5-49-35-48" id="am"/><g id="z"><use transform="matrix(0.05,0,0,0.05,0,0)" xlink:href="#Z"/><use transform="matrix(0.05,0,0,0.05,10,0)" xlink:href="#W"/><use transform="matrix(0.05,0,0,0.05,20,0)" xlink:href="#aj"/><use transform="matrix(0.05,0,0,0.05,30,0)" xlink:href="#ag"/><use transform="matrix(0.05,0,0,0.05,35.95,0)" xlink:href="#P"/><use transform="matrix(0.05,0,0,0.05,45.95,0)" xlink:href="#U"/><use transform="matrix(0.05,0,0,0.05,49.900000000000006,0)" xlink:href="#S"/><use transform="matrix(0.05,0,0,0.05,53.85,0)" xlink:href="#Q"/><use transform="matrix(0.05,0,0,0.05,63.85,0)" xlink:href="#ak"/><use transform="matrix(0.05,0,0,0.05,75.85000000000001,0)" xlink:href="#af"/><use transform="matrix(0.05,0,0,0.05,84.85000000000001,0)" xlink:href="#al"/><use transform="matrix(0.05,0,0,0.05,94.85000000000001,0)" xlink:href="#P"/><use transform="matrix(0.05,0,0,0.05,104.85000000000001,0)" xlink:href="#am"/><use transform="matrix(0.05,0,0,0.05,119.80000000000001,0)" xlink:href="#W"/></g><g id="A"><use transform="matrix(0.05,0,0,0.05,0,0)" xlink:href="#Z"/><use transform="matrix(0.05,0,0,0.05,10,0)" xlink:href="#W"/><use transform="matrix(0.05,0,0,0.05,20,0)" xlink:href="#aj"/><use transform="matrix(0.05,0,0,0.05,30,0)" xlink:href="#ag"/><use transform="matrix(0.05,0,0,0.05,35.95,0)" xlink:href="#P"/><use transform="matrix(0.05,0,0,0.05,45.95,0)" xlink:href="#U"/><use transform="matrix(0.05,0,0,0.05,49.900000000000006,0)" xlink:href="#S"/><use transform="matrix(0.05,0,0,0.05,53.85,0)" xlink:href="#Q"/><use transform="matrix(0.05,0,0,0.05,63.85,0)" xlink:href="#V"/><use transform="matrix(0.05,0,0,0.05,76.80000000000001,0)" xlink:href="#X"/><use transform="matrix(0.05,0,0,0.05,86.80000000000001,0)" xlink:href="#Q"/><use transform="matrix(0.05,0,0,0.05,96.80000000000001,0)" xlink:href="#O"/><use transform="matrix(0.05,0,0,0.05,101.80000000000001,0)" xlink:href="#ag"/><use transform="matrix(0.05,0,0,0.05,107.75,0)" xlink:href="#X"/><use transform="matrix(0.05,0,0,0.05,117.75,0)" xlink:href="#U"/><use transform="matrix(0.05,0,0,0.05,121.7,0)" xlink:href="#R"/></g><path d="M85-194c31 0 48 13 60 33l-1-100h32l1 261h-30c-2-10 0-23-3-31C134-8 116 4 85 4 32 4 16-35 15-94c0-66 23-100 70-100zm9 24c-40 0-46 34-46 75 0 40 6 74 45 74 42 0 51-32 51-76 0-42-9-74-50-73" id="an"/><g id="B"><use transform="matrix(0.05,0,0,0.05,0,0)" xlink:href="#S"/><use transform="matrix(0.05,0,0,0.05,3.95,0)" xlink:href="#Q"/><use transform="matrix(0.05,0,0,0.05,13.949999999999998,0)" xlink:href="#an"/><use transform="matrix(0.05,0,0,0.05,23.95,0)" xlink:href="#S"/><use transform="matrix(0.05,0,0,0.05,27.899999999999995,0)" xlink:href="#ag"/><use transform="matrix(0.05,0,0,0.05,33.85,0)" xlink:href="#P"/><use transform="matrix(0.05,0,0,0.05,43.85,0)" xlink:href="#af"/><use transform="matrix(0.05,0,0,0.05,52.85,0)" xlink:href="#O"/></g><g id="C"><use transform="matrix(0.05,0,0,0.05,0,0)" xlink:href="#Y"/><use transform="matrix(0.05,0,0,0.05,12,0)" xlink:href="#W"/><use transform="matrix(0.05,0,0,0.05,22,0)" xlink:href="#R"/><use transform="matrix(0.05,0,0,0.05,31,0)" xlink:href="#P"/><use transform="matrix(0.05,0,0,0.05,41,0)" xlink:href="#Z"/><use transform="matrix(0.05,0,0,0.05,51,0)" xlink:href="#W"/><use transform="matrix(0.05,0,0,0.05,61,0)" xlink:href="#aj"/><use transform="matrix(0.05,0,0,0.05,71,0)" xlink:href="#ag"/><use transform="matrix(0.05,0,0,0.05,76.95,0)" xlink:href="#P"/><use transform="matrix(0.05,0,0,0.05,86.95,0)" xlink:href="#U"/><use transform="matrix(0.05,0,0,0.05,90.9,0)" xlink:href="#S"/><use transform="matrix(0.05,0,0,0.05,94.85000000000001,0)" xlink:href="#Q"/><use transform="matrix(0.05,0,0,0.05,104.85000000000001,0)" xlink:href="#ak"/><use transform="matrix(0.05,0,0,0.05,116.85000000000001,0)" xlink:href="#af"/><use transform="matrix(0.05,0,0,0.05,125.85000000000001,0)" xlink:href="#al"/><use transform="matrix(0.05,0,0,0.05,135.85000000000002,0)" xlink:href="#P"/><use transform="matrix(0.05,0,0,0.05,145.85000000000002,0)" xlink:href="#am"/><use transform="matrix(0.05,0,0,0.05,160.8,0)" xlink:href="#W"/></g><g id="D"><use transform="matrix(0.05,0,0,0.05,0,0)" xlink:href="#Y"/><use transform="matrix(0.05,0,0,0.05,12,0)" xlink:href="#W"/><use transform="matrix(0.05,0,0,0.05,22,0)" xlink:href="#R"/><use transform="matrix(0.05,0,0,0.05,31,0)" xlink:href="#P"/><use transform="matrix(0.05,0,0,0.05,41,0)" xlink:href="#Z"/><use transform="matrix(0.05,0,0,0.05,51,0)" xlink:href="#W"/><use transform="matrix(0.05,0,0,0.05,61,0)" xlink:href="#aj"/><use transform="matrix(0.05,0,0,0.05,71,0)" xlink:href="#ag"/><use transform="matrix(0.05,0,0,0.05,76.95,0)" xlink:href="#P"/><use transform="matrix(0.05,0,0,0.05,86.95,0)" xlink:href="#U"/><use transform="matrix(0.05,0,0,0.05,90.9,0)" xlink:href="#S"/><use transform="matrix(0.05,0,0,0.05,94.85000000000001,0)" xlink:href="#Q"/><use transform="matrix(0.05,0,0,0.05,104.85000000000001,0)" xlink:href="#V"/><use transform="matrix(0.05,0,0,0.05,117.80000000000001,0)" xlink:href="#X"/><use transform="matrix(0.05,0,0,0.05,127.80000000000001,0)" xlink:href="#Q"/><use transform="matrix(0.05,0,0,0.05,137.8,0)" xlink:href="#O"/><use transform="matrix(0.05,0,0,0.05,142.8,0)" xlink:href="#ag"/><use transform="matrix(0.05,0,0,0.05,148.75,0)" xlink:href="#X"/><use transform="matrix(0.05,0,0,0.05,158.75,0)" xlink:href="#U"/><use transform="matrix(0.05,0,0,0.05,162.7,0)" xlink:href="#R"/></g><path d="M16-82v-28h88v28H16" id="ao"/><path d="M177-190C167-65 218 103 67 71c-23-6-38-20-44-43l32-5c15 47 100 32 89-28v-30C133-14 115 1 83 1 29 1 15-40 15-95c0-56 16-97 71-98 29-1 48 16 59 35 1-10 0-23 2-32h30zM94-22c36 0 50-32 50-73 0-42-14-75-50-75-39 0-46 34-46 75s6 73 46 73" id="ap"/><g id="E"><use transform="matrix(0.05,0,0,0.05,0,0)" xlink:href="#ab"/><use transform="matrix(0.05,0,0,0.05,12,0)" xlink:href="#aj"/><use transform="matrix(0.05,0,0,0.05,22,0)" xlink:href="#O"/><use transform="matrix(0.05,0,0,0.05,27,0)" xlink:href="#X"/><use transform="matrix(0.05,0,0,0.05,37,0)" xlink:href="#ao"/><use transform="matrix(0.05,0,0,0.05,42.95,0)" xlink:href="#ap"/><use transform="matrix(0.05,0,0,0.05,52.95,0)" xlink:href="#P"/><use transform="matrix(0.05,0,0,0.05,62.95,0)" xlink:href="#Q"/><use transform="matrix(0.05,0,0,0.05,72.95,0)" xlink:href="#P"/><use transform="matrix(0.05,0,0,0.05,82.95,0)" xlink:href="#ag"/><use transform="matrix(0.05,0,0,0.05,88.9,0)" xlink:href="#W"/><use transform="matrix(0.05,0,0,0.05,98.9,0)" xlink:href="#O"/><use transform="matrix(0.05,0,0,0.05,103.9,0)" xlink:href="#P"/><use transform="matrix(0.05,0,0,0.05,113.9,0)" xlink:href="#an"/></g><g id="F"><use transform="matrix(0.05,0,0,0.05,0,0)" xlink:href="#aa"/><use transform="matrix(0.05,0,0,0.05,12.950000000000001,0)" xlink:href="#P"/><use transform="matrix(0.05,0,0,0.05,22.950000000000003,0)" xlink:href="#ai"/><use transform="matrix(0.05,0,0,0.05,27.950000000000003,0)" xlink:href="#S"/><use transform="matrix(0.05,0,0,0.05,31.900000000000002,0)" xlink:href="#Q"/><use transform="matrix(0.05,0,0,0.05,41.900000000000006,0)" xlink:href="#P"/><use transform="matrix(0.05,0,0,0.05,51.900000000000006,0)" xlink:href="#an"/></g><g id="G"><use transform="matrix(0.05,0,0,0.05,0,0)" xlink:href="#S"/><use transform="matrix(0.05,0,0,0.05,3.95,0)" xlink:href="#Q"/></g><g id="H"><use transform="matrix(0.05,0,0,0.05,0,0)" xlink:href="#P"/><use transform="matrix(0.05,0,0,0.05,10,0)" xlink:href="#N"/><use transform="matrix(0.05,0,0,0.05,19,0)" xlink:href="#O"/><use transform="matrix(0.05,0,0,0.05,24,0)" xlink:href="#P"/><use transform="matrix(0.05,0,0,0.05,34,0)" xlink:href="#Q"/><use transform="matrix(0.05,0,0,0.05,44,0)" xlink:href="#R"/><use transform="matrix(0.05,0,0,0.05,53,0)" xlink:href="#S"/><use transform="matrix(0.05,0,0,0.05,56.95,0)" xlink:href="#X"/><use transform="matrix(0.05,0,0,0.05,66.95,0)" xlink:href="#Q"/></g><g id="I"><use transform="matrix(0.05,0,0,0.05,0,0)" xlink:href="#am"/><use transform="matrix(0.05,0,0,0.05,14.950000000000001,0)" xlink:href="#X"/><use transform="matrix(0.05,0,0,0.05,24.950000000000003,0)" xlink:href="#an"/><use transform="matrix(0.05,0,0,0.05,34.95,0)" xlink:href="#aj"/><use transform="matrix(0.05,0,0,0.05,44.95,0)" xlink:href="#U"/><use transform="matrix(0.05,0,0,0.05,48.900000000000006,0)" xlink:href="#P"/><use transform="matrix(0.05,0,0,0.05,58.900000000000006,0)" xlink:href="#R"/></g><path d="M194 0L95-120 63-95V0H30v-248h33v124l119-124h40L117-140 236 0h-42" id="aq"/><path d="M179-190L93 31C79 59 56 82 12 73V49c39 6 53-20 64-50L1-190h34L92-34l54-156h33" id="ar"/><g id="J"><use transform="matrix(0.05,0,0,0.05,0,0)" xlink:href="#aq"/><use transform="matrix(0.05,0,0,0.05,12,0)" xlink:href="#P"/><use transform="matrix(0.05,0,0,0.05,22,0)" xlink:href="#ar"/></g><path d="M233-177c-1 41-23 64-60 70L243 0h-38l-65-103H63V0H30v-248c88 3 205-21 203 71zM63-129c60-2 137 13 137-47 0-61-80-42-137-45v92" id="as"/><g id="K"><use transform="matrix(0.05,0,0,0.05,0,0)" xlink:href="#Z"/><use transform="matrix(0.05,0,0,0.05,10,0)" xlink:href="#W"/><use transform="matrix(0.05,0,0,0.05,20,0)" xlink:href="#aj"/><use transform="matrix(0.05,0,0,0.05,30,0)" xlink:href="#ag"/><use transform="matrix(0.05,0,0,0.05,35.95,0)" xlink:href="#P"/><use transform="matrix(0.05,0,0,0.05,45.95,0)" xlink:href="#U"/><use transform="matrix(0.05,0,0,0.05,49.900000000000006,0)" xlink:href="#S"/><use transform="matrix(0.05,0,0,0.05,53.85,0)" xlink:href="#Q"/><use transform="matrix(0.05,0,0,0.05,63.85,0)" xlink:href="#as"/><use transform="matrix(0.05,0,0,0.05,76.80000000000001,0)" xlink:href="#P"/><use transform="matrix(0.05,0,0,0.05,86.80000000000001,0)" xlink:href="#ap"/><use transform="matrix(0.05,0,0,0.05,96.80000000000001,0)" xlink:href="#S"/><use transform="matrix(0.05,0,0,0.05,100.75000000000001,0)" xlink:href="#R"/><use transform="matrix(0.05,0,0,0.05,109.75,0)" xlink:href="#O"/><use transform="matrix(0.05,0,0,0.05,114.75,0)" xlink:href="#ag"/><use transform="matrix(0.05,0,0,0.05,120.7,0)" xlink:href="#W"/><use transform="matrix(0.05,0,0,0.05,130.70000000000002,0)" xlink:href="#ag"/></g><path d="M127-220V0H93v-220H8v-28h204v28h-85" id="at"/><g id="L"><use transform="matrix(0.05,0,0,0.05,0,0)" xlink:href="#Z"/><use transform="matrix(0.05,0,0,0.05,10,0)" xlink:href="#W"/><use transform="matrix(0.05,0,0,0.05,20,0)" xlink:href="#aj"/><use transform="matrix(0.05,0,0,0.05,30,0)" xlink:href="#ag"/><use transform="matrix(0.05,0,0,0.05,35.95,0)" xlink:href="#P"/><use transform="matrix(0.05,0,0,0.05,45.95,0)" xlink:href="#U"/><use transform="matrix(0.05,0,0,0.05,49.900000000000006,0)" xlink:href="#S"/><use transform="matrix(0.05,0,0,0.05,53.85,0)" xlink:href="#Q"/><use transform="matrix(0.05,0,0,0.05,63.85,0)" xlink:href="#at"/><use transform="matrix(0.05,0,0,0.05,74.15,0)" xlink:href="#ag"/><use transform="matrix(0.05,0,0,0.05,80.10000000000001,0)" xlink:href="#W"/><use transform="matrix(0.05,0,0,0.05,90.10000000000001,0)" xlink:href="#Q"/><use transform="matrix(0.05,0,0,0.05,100.10000000000001,0)" xlink:href="#R"/><use transform="matrix(0.05,0,0,0.05,109.10000000000001,0)" xlink:href="#S"/><use transform="matrix(0.05,0,0,0.05,113.05000000000001,0)" xlink:href="#O"/><use transform="matrix(0.05,0,0,0.05,118.05000000000001,0)" xlink:href="#P"/><use transform="matrix(0.05,0,0,0.05,128.05,0)" xlink:href="#ag"/></g></defs></g></svg>