<svg xmlns="http://www.w3.org/2000/svg" xmlns:xlink="http://www.w3.org/1999/xlink" xmlns:lucid="lucid" width="1722.64" height="1016"><g transform="translate(0 0)" lucid:page-tab-id="0_0"><path d="M271.32 191.32h160v80h-160z" stroke="#000" stroke-width="2" fill="#fff"/><use xlink:href="#a" transform="matrix(1,0,0,1,276.3207547169811,196.32075471698113) translate(11.099999999999994 38.6)"/><path d="M751.32 191.32h160v80h-160z" stroke="#000" stroke-width="2" fill="#fff"/><use xlink:href="#b" transform="matrix(1,0,0,1,756.3207547169811,196.32075471698113) translate(10.525000000000006 38.6)"/><path d="M31.32 351.32h160v80h-160z" stroke="#000" stroke-width="2" fill="#c1e4f7"/><use xlink:href="#c" transform="matrix(1,0,0,1,36.32075471698113,356.3207547169811) translate(7.549999999999997 38.6)"/><path d="M471.32 351.32h200v80h-200z" stroke="#000" stroke-width="2" fill="#c1e4f7"/><use xlink:href="#d" transform="matrix(1,0,0,1,476.3207547169811,356.3207547169811) translate(1.5750000000000028 38.6)"/><path d="M351.32 290.56v20.76h-240v39" stroke="#000" stroke-width="2" fill="none"/><path d="M355.96 289.82h-9.27l4.62-14.26z"/><path d="M357.33 290.82H345.3l6.02-18.5zm-9.27-2h6.52l-3.26-10.03zM112.32 351.32h-2v-1h2z"/><path d="M351.32 290.56v20.76h220v39" stroke="#000" stroke-width="2" fill="none"/><path d="M355.96 289.82h-9.27l4.62-14.26z"/><path d="M357.33 290.82H345.3l6.02-18.5zm-9.27-2h6.52l-3.26-10.03zM572.32 351.32h-2v-1h2z"/><path d="M766.66 351h128.68v80H766.66z" stroke="#000" stroke-width="2" fill="#c1e4f7"/><use xlink:href="#e" transform="matrix(1,0,0,1,771.6603773584906,356) translate(15.524999999999999 38.6)"/><path d="M831.32 290.56v20.6H831V350" stroke="#000" stroke-width="2" fill="none"/><path d="M835.96 289.82h-9.27l4.62-14.26z"/><path d="M837.33 290.82H825.3l6.02-18.5zm-9.27-2h6.52l-3.26-10.03zM832 351h-2v-1h2z"/><path d="M31.32 611.32h160v80h-160z" stroke="#000" stroke-width="2" fill="#fff"/><use xlink:href="#f" transform="matrix(1,0,0,1,36.32075471698113,616.3207547169811) translate(51.525 38.6)"/><path d="M111.32 450.56v159.76" stroke="#000" stroke-width="2" fill="none"/><path d="M115.96 449.82h-9.27l4.62-14.26z"/><path d="M117.33 450.82H105.3l6.02-18.5zm-9.27-2h6.52l-3.26-10.03zM112.32 611.32h-2v-1h2z"/><path d="M491.32 611.32h160v80h-160z" stroke="#000" stroke-width="2" fill="#fff"/><use xlink:href="#g" transform="matrix(1,0,0,1,496.3207547169811,616.3207547169811) translate(25.549999999999997 38.6)"/><path d="M571.32 450.56v159.76" stroke="#000" stroke-width="2" fill="none"/><path d="M575.96 449.82h-9.27l4.62-14.26z"/><path d="M577.33 450.82H565.3l6.02-18.5zm-9.27-2h6.52l-3.26-10.03zM572.32 611.32h-2v-1h2z"/><path d="M31.32 751.32h160v80h-160z" stroke="#000" stroke-width="2" fill="#fff"/><path d="M47.32 751.32v80m128-80v80" stroke="#000" stroke-width="2" fill="none"/><use xlink:href="#h" transform="matrix(1,0,0,1,56.32075471698113,756.3207547169811) translate(31.7 27.799999999999997)"/><use xlink:href="#i" transform="matrix(1,0,0,1,56.32075471698113,756.3207547169811) translate(17.025 49.4)"/><path d="M112.32 750.32h-2v-8.7h2zm0-30.3h-2v-9.46h2zM112.32 751.32h-2v-1h2zM115.96 709.82h-9.27l4.62-14.26z"/><path d="M117.33 710.82H105.3l6.02-18.5zm-9.27-2h6.52l-3.26-10.03z"/><use xlink:href="#j" transform="matrix(1,0,0,1,65.87075471698112,720.0176100628931) translate(0 14.4)"/><path d="M491.32 751.32h160v80h-160z" stroke="#000" stroke-width="2" fill="#fff"/><path d="M507.32 751.32v80m128-80v80" stroke="#000" stroke-width="2" fill="none"/><use xlink:href="#k" transform="matrix(1,0,0,1,516.3207547169811,756.3207547169811) translate(5.549999999999997 27.799999999999997)"/><use xlink:href="#i" transform="matrix(1,0,0,1,516.3207547169811,756.3207547169811) translate(17.025 49.4)"/><path d="M572.32 750.32h-2v-8.7h2zm0-30.3h-2v-9.46h2zM572.32 751.32h-2v-1h2zM575.96 709.82h-9.27l4.62-14.26z"/><path d="M577.33 710.82H565.3l6.02-18.5zm-9.27-2h6.52l-3.26-10.03z"/><use xlink:href="#j" transform="matrix(1,0,0,1,525.8707547169811,720.0176100628931) translate(0 14.4)"/><path d="M311.85 792.32H192.32v-2h119.53zm160.23 0H370.8v-2h101.28zM192.32 792.32h-1v-2h1zM487.08 791.32l-14.26 4.64v-9.27z"/><path d="M490.32 791.32l-18.5 6v-12zm-16.5 3.26l10.03-3.26-10.03-3.26z"/><use xlink:href="#l" transform="matrix(1,0,0,1,311.8457547169811,780.5207547169812) translate(0 14.4)"/><path d="M751.32 751.32h160v80h-160z" stroke="#000" stroke-width="2" fill="#fff"/><path d="M767.32 751.32v80m128-80v80" stroke="#000" stroke-width="2" fill="none"/><use xlink:href="#m" transform="matrix(1,0,0,1,776.3207547169811,756.3207547169811) translate(12.024999999999999 27.799999999999997)"/><use xlink:href="#n" transform="matrix(1,0,0,1,776.3207547169811,756.3207547169811) translate(21.525 49.4)"/><path d="M832.32 750.32h-2v-11.54h2zM832 590.16h.32v127.02h-2V592.16H830V450.24h2zM832.32 751.32h-2v-1h2zM835.64 449.5h-9.28l4.64-14.26z"/><path d="M837 450.5h-12l6-18.5zm-9.26-2h6.52L831 438.47z"/><use xlink:href="#j" transform="matrix(1,0,0,1,785.8707547169811,717.1811887255984) translate(0 14.4)"/><path d="M159 911c17.67 0 32 17.9 32 40s-14.33 40-32 40H63c-17.67 0-32-17.9-32-40s14.33-40 32-40z" stroke="#000" stroke-width="2" fill="#fff"/><use xlink:href="#o" transform="matrix(1,0,0,1,36,916) translate(24.074999999999996 38.6)"/><use xlink:href="#p" transform="matrix(1,0,0,1,36,916) translate(66.975 38.6)"/><path d="M89.67 910v-38.84h-.22v-20.6" stroke="#000" stroke-width="2" fill="none"/><path d="M90.67 911h-2v-1h2zM94.1 849.82H84.8l4.63-14.26z"/><path d="M95.47 850.82H83.44l6-18.5zm-9.27-2h6.5l-3.25-10.03z"/><path d="M619.32 911.32c17.67 0 32 17.9 32 40s-14.33 40-32 40h-96c-17.67 0-32-17.9-32-40s14.33-40 32-40z" stroke="#000" stroke-width="2" fill="#fff"/><use xlink:href="#o" transform="matrix(1,0,0,1,496.3207547169811,916.3207547169811) translate(11.099999999999994 38.6)"/><use xlink:href="#q" transform="matrix(1,0,0,1,496.3207547169811,916.3207547169811) translate(54 38.6)"/><path d="M571.32 910.32v-59.76" stroke="#000" stroke-width="2" fill="none"/><path d="M572.32 911.32h-2v-1h2zM575.96 849.82h-9.27l4.62-14.26z"/><path d="M577.33 850.82H565.3l6.02-18.5zm-9.27-2h6.52l-3.26-10.03z"/><path d="M571.32 910.32v-39h221.52v-20.76" stroke="#000" stroke-width="2" fill="none"/><path d="M572.32 911.32h-2v-1h2zM797.47 849.82h-9.27l4.64-14.26z"/><path d="M798.85 850.82h-12.02l6-18.5zm-9.27-2h6.52l-3.26-10.03zM135.55 870.32h436.77v40h-2v-38H133.55v-21.76h2zM572.32 911.32h-2v-1h2zM139.2 849.82h-9.28l4.63-14.26z"/><path d="M140.57 850.82h-12.03l6-18.5zm-9.27-2h6.5l-3.25-10.03z"/><path d="M639.32 31.32c17.67 0 32 17.9 32 40s-14.33 40-32 40h-96c-17.67 0-32-17.9-32-40s14.33-40 32-40z" stroke="#000" stroke-width="2" fill="#fff"/><use xlink:href="#r" transform="matrix(1,0,0,1,516.3207547169811,36.32075471698113) translate(33.55 38.6)"/><path d="M351.32 190.32v-39h240v-20.76" stroke="#000" stroke-width="2" fill="none"/><path d="M352.32 191.32h-2v-1h2zM595.96 129.82h-9.27l4.62-14.26z"/><path d="M597.33 130.82H585.3l6.02-18.5zm-9.27-2h6.52l-3.26-10.03z"/><path d="M831.32 190.32v-39h-240v-20.76" stroke="#000" stroke-width="2" fill="none"/><path d="M832.32 191.32h-2v-1h2zM595.96 129.82h-9.27l4.62-14.26z"/><path d="M597.33 130.82H585.3l6.02-18.5zm-9.27-2h6.52l-3.26-10.03z"/><path d="M1091 351.32h160v80h-160z" stroke="#000" stroke-width="2" fill="#c7e8ac"/><use xlink:href="#s" transform="matrix(1,0,0,1,1096,356.3207547169811) translate(3.5999999999999943 38.6)"/><path d="M1071.76 390.32v2h-13.14v-2zM896.34 392v-2h31.38v2zM896.34 392h-1v-2h1zM1086.76 391.32l-14.26 4.64v-9.27z"/><path d="M1090 391.32l-18.5 6v-12zm-16.5 3.26l10.03-3.26-10.03-3.26z"/><use xlink:href="#t" transform="matrix(1,0,0,1,927.7198111792452,380.3603773584906) translate(0 14.4)"/><use xlink:href="#n" transform="matrix(1,0,0,1,927.7198111792452,380.3603773584906) translate(63.95 14.4)"/><path d="M1091 451.16h260v80h-260z" stroke="#000" stroke-width="2" fill="#c7e8ac"/><use xlink:href="#u" transform="matrix(1,0,0,1,1096,456.16037735849056) translate(4.150000000000006 38.6)"/><path d="M632.32 490.16h295.36v2H630.32v-59.84h2zm439.44 0v2h-13.18v-2zM632.32 432.32h-2v-1h2zM1086.76 491.16l-14.26 4.64v-9.27z"/><path d="M1090 491.16l-18.5 6v-12zm-16.5 3.26l10.03-3.26-10.03-3.26z"/><use xlink:href="#t" transform="matrix(1,0,0,1,927.67893081761,480.36037735849055) translate(0 14.4)"/><use xlink:href="#n" transform="matrix(1,0,0,1,927.67893081761,480.36037735849055) translate(63.95 14.4)"/><path d="M1091 551h220v80h-220z" stroke="#000" stroke-width="2" fill="#c7e8ac"/><use xlink:href="#v" transform="matrix(1,0,0,1,1096,556) translate(10.125 38.6)"/><path d="M152.32 590h772.4v2h-774.4V432.32h2zm919.44 0v2h-16.14v-2zM152.32 432.32h-2v-1h2zM1086.76 591l-14.26 4.64v-9.28z"/><path d="M1090 591l-18.5 6v-12zm-16.5 3.26l10.03-3.26-10.03-3.26z"/><use xlink:href="#t" transform="matrix(1,0,0,1,924.7165113438493,580.2) translate(0 14.4)"/><use xlink:href="#n" transform="matrix(1,0,0,1,924.7165113438493,580.2) translate(63.95 14.4)"/><path d="M1551.32 351.32c22.1 0 40 17.9 40 40s-17.9 40-40 40h-120c-22.1 0-40-17.9-40-40s17.9-40 40-40z" stroke="#000" stroke-width="2" fill="#fff"/><use xlink:href="#w" transform="matrix(1,0,0,1,1396.3207547169811,356.3207547169811) translate(3.0999999999999943 38.6)"/><path d="M1252 391.32h120.08" stroke="#000" stroke-width="2" fill="none"/><path d="M1252 392.32h-1v-2h1zM1387.08 391.32l-14.26 4.64v-9.27z"/><path d="M1390.32 391.32l-18.5 6v-12zm-16.5 3.26l10.03-3.26-10.03-3.26z"/><path d="M1631.32 451.32c33.14 0 60 17.9 60 40s-26.86 40-60 40h-180c-33.14 0-60-17.9-60-40s26.86-40 60-40z" stroke="#000" stroke-width="2" fill="#fff"/><use xlink:href="#x" transform="matrix(1,0,0,1,1396.3207547169811,456.3207547169811) translate(3.6500000000000057 38.6)"/><path d="M1352 491.16h19.16v.16h.92" stroke="#000" stroke-width="2" fill="none"/><path d="M1352 492.16h-1v-2h1zM1387.08 491.32l-14.26 4.64v-9.27z"/><path d="M1390.32 491.32l-18.5 6v-12zm-16.5 3.26l10.03-3.26-10.03-3.26z"/><path d="M1599.32 551.32c28.72 0 52 17.9 52 40s-23.28 40-52 40h-156c-28.72 0-52-17.9-52-40s23.28-40 52-40z" stroke="#000" stroke-width="2" fill="#fff"/><use xlink:href="#y" transform="matrix(1,0,0,1,1396.3207547169811,556.3207547169811) translate(9.625 38.6)"/><path d="M1312 591h39.16v.32h20.92" stroke="#000" stroke-width="2" fill="none"/><path d="M1312 592h-1v-2h1zM1387.08 591.32l-14.26 4.64v-9.27z"/><path d="M1390.32 591.32l-18.5 6v-12zm-16.5 3.26l10.03-3.26-10.03-3.26z"/><path d="M1091 751h160v80h-160z" stroke="#000" stroke-width="2" fill="#c7e8ac"/><use xlink:href="#z" transform="matrix(1,0,0,1,1096,756) translate(10.099999999999994 38.6)"/><path d="M1091 911h160v80h-160z" stroke="#000" stroke-width="2" fill="#c7e8ac"/><use xlink:href="#A" transform="matrix(1,0,0,1,1096,916) translate(9.649999999999991 38.6)"/><path d="M662.3 952.32h-9.98v-2h10zm29.97 0H672.3v-2h19.97zm29.96 0h-19.97v-2h19.97zm29.96 0H732.2v-2h19.97zm12.98 0h-3v-2h3zm106.85 0h-19.97v-2h19.97zm29.96 0H882v-2H902zm29.95 0h-19.97v-2h19.97zm29.96 0h-19.96v-2h19.97zm29.97 0H971.9v-2h19.97zm29.96 0h-19.97v-2h19.97zm29.96 0h-19.98v-2h19.97zm19.96 0h-9.98v-2h9.98zm-229.7 0h-19.03v-2h19.04z"/><path d="M652.32 952.32h-1.06l.06-1-.03-1h1.02zM1086.76 951.32l-14.26 4.64v-9.27z"/><path d="M1090 951.32l-18.5 6v-12zm-16.5 3.26l10.03-3.26-10.03-3.26zM662.5 952.32H652.3v-2h10.17zm30.5 0h-20.34v-2H693zm30.52 0h-20.34v-2h20.34zm30.5 0H733.7v-2h20.33zm11.16 0h-.97v-2h.98zm80.4 0h-20.35v-2h20.35zm30.5 0h-20.33v-2h20.34zm30.52 0h-20.34v-2h20.34zm30.52 0h-20.35v-2h20.35zm30.5 0H947.3v-2h20.33zm13.38 0h-3.2v-2h1.2v-17.14h2zm0-29.32h-2v-20.34h2zm0-30.5h-2v-20.35h2zm0-30.52h-2v-20.35h2zm0-30.52h-2v-20.34h2zm9.4-39.46H981v8.95h-2V790h11.4zm30.5 0h-20.34v-2h20.35zm30.52 0h-20.34v-2h20.34zm20.34 0h-10.17v-2h10.16z"/><path d="M652.32 952.32h-1.06l.06-1-.03-1h1.02zM1086.76 791l-14.26 4.64v-9.28z"/><path d="M1090 791l-18.5 6v-12zm-16.5 3.26l10.03-3.26-10.03-3.26z"/><use xlink:href="#B" transform="matrix(1,0,0,1,765.1805249276747,940.5207547169812) translate(0 14.4)"/><path d="M1551 751c22.1 0 40 17.9 40 40s-17.9 40-40 40h-120c-22.1 0-40-17.9-40-40s17.9-40 40-40z" stroke="#000" stroke-width="2" fill="#fff"/><use xlink:href="#C" transform="matrix(1,0,0,1,1396,756) translate(9.599999999999994 38.6)"/><path d="M1551 911c22.1 0 40 17.9 40 40s-17.9 40-40 40h-120c-22.1 0-40-17.9-40-40s17.9-40 40-40z" stroke="#000" stroke-width="2" fill="#fff"/><use xlink:href="#D" transform="matrix(1,0,0,1,1396,916) translate(9.150000000000006 38.6)"/><path d="M1252 951h119.76" stroke="#000" stroke-width="2" fill="none"/><path d="M1252 952h-1v-2h1zM1386.76 951l-14.26 4.64v-9.28z"/><path d="M1390 951l-18.5 6v-12zm-16.5 3.26l10.03-3.26-10.03-3.26z"/><path d="M1252 791h119.76" stroke="#000" stroke-width="2" fill="none"/><path d="M1252 792h-1v-2h1zM1386.76 791l-14.26 4.64v-9.28z"/><path d="M1390 791l-18.5 6v-12zm-16.5 3.26l10.03-3.26-10.03-3.26z"/><path d="M1531 29.4h160v53.2h-160z" stroke="#000" stroke-width="2" fill="#c1e4f7"/><g><use xlink:href="#E" transform="matrix(1,0,0,1,1536,34.4) translate(13.049999999999997 25.6)"/></g><path d="M1531.32 100h160v53.2h-160z" stroke="#000" stroke-width="2" fill="#c7e8ac"/><g><use xlink:href="#F" transform="matrix(1,0,0,1,1536.3207547169814,105) translate(34.574999999999996 14.799999999999999)"/><use xlink:href="#G" transform="matrix(1,0,0,1,1536.3207547169814,105) translate(101.475 14.799999999999999)"/><use xlink:href="#H" transform="matrix(1,0,0,1,1536.3207547169814,105) translate(0.07499999999998863 36.4)"/><use xlink:href="#I" transform="matrix(1,0,0,1,1536.3207547169814,105) translate(82.02499999999999 36.4)"/></g><path d="M1440 20h80v140h-80z" fill="none"/><path d="M1520 160c-4.83 0-8.75-3.92-8.75-8.75v-52.5c0-4.83-3.92-8.75-8.75-8.75 4.83 0 8.75-3.92 8.75-8.75v-52.5c0-4.83 3.92-8.75 8.75-8.75" stroke="#000" stroke-width="2" fill="none"/><g><use xlink:href="#J" transform="matrix(1,0,0,1,1445,25) translate(13 68.60000000000001)"/></g><defs><path d="M30 0v-248h187v28H63v79h144v27H63v87h162V0H30" id="K"/><path d="M141 0L90-78 38 0H4l68-98-65-92h35l48 74 47-74h35l-64 92 68 98h-35" id="L"/><path d="M59-47c-2 24 18 29 38 22v24C64 9 27 4 27-40v-127H5v-23h24l9-43h21v43h35v23H59v120" id="M"/><path d="M100-194c63 0 86 42 84 106H49c0 40 14 67 53 68 26 1 43-12 49-29l28 8c-11 28-37 45-77 45C44 4 14-33 15-96c1-61 26-98 85-98zm52 81c6-60-76-77-97-28-3 7-6 17-6 28h103" id="N"/><path d="M117-194c89-4 53 116 60 194h-32v-121c0-31-8-49-39-48C34-167 62-67 57 0H25l-1-190h30c1 10-1 24 2 32 11-22 29-35 61-36" id="O"/><path d="M135-143c-3-34-86-38-87 0 15 53 115 12 119 90S17 21 10-45l28-5c4 36 97 45 98 0-10-56-113-15-118-90-4-57 82-63 122-42 12 7 21 19 24 35" id="P"/><path d="M24-231v-30h32v30H24zM24 0v-190h32V0H24" id="Q"/><path d="M115-194c53 0 69 39 70 98 0 66-23 100-70 100C84 3 66-7 56-30L54 0H23l1-261h32v101c10-23 28-34 59-34zm-8 174c40 0 45-34 45-75 0-40-5-75-45-74-42 0-51 32-51 76 0 43 10 73 51 73" id="R"/><path d="M24 0v-261h32V0H24" id="S"/><path d="M212-179c-10-28-35-45-73-45-59 0-87 40-87 99 0 60 29 101 89 101 43 0 62-24 78-52l27 14C228-24 195 4 139 4 59 4 22-46 18-125c-6-104 99-153 187-111 19 9 31 26 39 46" id="T"/><path d="M141-36C126-15 110 5 73 4 37 3 15-17 15-53c-1-64 63-63 125-63 3-35-9-54-41-54-24 1-41 7-42 31l-33-3c5-37 33-52 76-52 45 0 72 20 72 64v82c-1 20 7 32 28 27v20c-31 9-61-2-59-35zM48-53c0 20 12 33 32 33 41-3 63-29 60-74-43 2-92-5-92 41" id="U"/><g id="a"><use transform="matrix(0.05,0,0,0.05,0,0)" xlink:href="#K"/><use transform="matrix(0.05,0,0,0.05,12,0)" xlink:href="#L"/><use transform="matrix(0.05,0,0,0.05,21,0)" xlink:href="#M"/><use transform="matrix(0.05,0,0,0.05,26,0)" xlink:href="#N"/><use transform="matrix(0.05,0,0,0.05,36,0)" xlink:href="#O"/><use transform="matrix(0.05,0,0,0.05,46,0)" xlink:href="#P"/><use transform="matrix(0.05,0,0,0.05,55,0)" xlink:href="#Q"/><use transform="matrix(0.05,0,0,0.05,58.95,0)" xlink:href="#R"/><use transform="matrix(0.05,0,0,0.05,68.95,0)" xlink:href="#S"/><use transform="matrix(0.05,0,0,0.05,72.9,0)" xlink:href="#N"/><use transform="matrix(0.05,0,0,0.05,82.9,0)" xlink:href="#T"/><use transform="matrix(0.05,0,0,0.05,95.85000000000001,0)" xlink:href="#S"/><use transform="matrix(0.05,0,0,0.05,99.80000000000001,0)" xlink:href="#U"/><use transform="matrix(0.05,0,0,0.05,109.80000000000001,0)" xlink:href="#P"/><use transform="matrix(0.05,0,0,0.05,118.80000000000001,0)" xlink:href="#P"/></g><path d="M100-194c62-1 85 37 85 99 1 63-27 99-86 99S16-35 15-95c0-66 28-99 85-99zM99-20c44 1 53-31 53-75 0-43-8-75-51-75s-53 32-53 75 10 74 51 75" id="V"/><path d="M160-131c35 5 61 23 61 61C221 17 115-2 30 0v-248c76 3 177-17 177 60 0 33-19 50-47 57zm-97-11c50-1 110 9 110-42 0-47-63-36-110-37v79zm0 115c55-2 124 14 124-45 0-56-70-42-124-44v89" id="W"/><g id="b"><use transform="matrix(0.05,0,0,0.05,0,0)" xlink:href="#K"/><use transform="matrix(0.05,0,0,0.05,12,0)" xlink:href="#L"/><use transform="matrix(0.05,0,0,0.05,21,0)" xlink:href="#M"/><use transform="matrix(0.05,0,0,0.05,26,0)" xlink:href="#N"/><use transform="matrix(0.05,0,0,0.05,36,0)" xlink:href="#O"/><use transform="matrix(0.05,0,0,0.05,46,0)" xlink:href="#P"/><use transform="matrix(0.05,0,0,0.05,55,0)" xlink:href="#Q"/><use transform="matrix(0.05,0,0,0.05,58.95,0)" xlink:href="#V"/><use transform="matrix(0.05,0,0,0.05,68.95,0)" xlink:href="#O"/><use transform="matrix(0.05,0,0,0.05,78.95,0)" xlink:href="#P"/><use transform="matrix(0.05,0,0,0.05,87.95,0)" xlink:href="#W"/><use transform="matrix(0.05,0,0,0.05,99.95,0)" xlink:href="#U"/><use transform="matrix(0.05,0,0,0.05,109.95,0)" xlink:href="#P"/><use transform="matrix(0.05,0,0,0.05,118.95,0)" xlink:href="#N"/></g><path d="M30 0v-248h33v221h125V0H30" id="X"/><path d="M30-248c118-7 216 8 213 122C240-48 200 0 122 0H30v-248zM63-27c89 8 146-16 146-99s-60-101-146-95v194" id="Y"/><path d="M205 0l-28-72H64L36 0H1l101-248h38L239 0h-34zm-38-99l-47-123c-12 45-31 82-46 123h93" id="Z"/><path d="M30-248c87 1 191-15 191 75 0 78-77 80-158 76V0H30v-248zm33 125c57 0 124 11 124-50 0-59-68-47-124-48v98" id="aa"/><g id="c"><use transform="matrix(0.05,0,0,0.05,0,0)" xlink:href="#X"/><use transform="matrix(0.05,0,0,0.05,10,0)" xlink:href="#Y"/><use transform="matrix(0.05,0,0,0.05,22.950000000000003,0)" xlink:href="#Z"/><use transform="matrix(0.05,0,0,0.05,34.95,0)" xlink:href="#aa"/><use transform="matrix(0.05,0,0,0.05,46.95,0)" xlink:href="#K"/><use transform="matrix(0.05,0,0,0.05,58.95,0)" xlink:href="#L"/><use transform="matrix(0.05,0,0,0.05,67.95,0)" xlink:href="#M"/><use transform="matrix(0.05,0,0,0.05,72.95,0)" xlink:href="#N"/><use transform="matrix(0.05,0,0,0.05,82.95,0)" xlink:href="#O"/><use transform="matrix(0.05,0,0,0.05,92.95,0)" xlink:href="#P"/><use transform="matrix(0.05,0,0,0.05,101.95,0)" xlink:href="#Q"/><use transform="matrix(0.05,0,0,0.05,105.9,0)" xlink:href="#V"/><use transform="matrix(0.05,0,0,0.05,115.9,0)" xlink:href="#O"/><use transform="matrix(0.05,0,0,0.05,125.9,0)" xlink:href="#P"/></g><path d="M140-251c81 0 123 46 123 126C263-46 219 4 140 4 59 4 17-45 17-125s42-126 123-126zm0 227c63 0 89-41 89-101s-29-99-89-99c-61 0-89 39-89 99S79-25 140-24" id="ab"/><path d="M24-231v-30h32v30H24zM-9 49c24 4 33-6 33-30v-209h32V24c2 40-23 58-65 49V49" id="ac"/><path d="M96-169c-40 0-48 33-48 73s9 75 48 75c24 0 41-14 43-38l32 2c-6 37-31 61-74 61-59 0-76-41-82-99-10-93 101-131 147-64 4 7 5 14 7 22l-32 3c-4-21-16-35-41-35" id="ad"/><g id="d"><use transform="matrix(0.05,0,0,0.05,0,0)" xlink:href="#X"/><use transform="matrix(0.05,0,0,0.05,10,0)" xlink:href="#Y"/><use transform="matrix(0.05,0,0,0.05,22.950000000000003,0)" xlink:href="#Z"/><use transform="matrix(0.05,0,0,0.05,34.95,0)" xlink:href="#aa"/><use transform="matrix(0.05,0,0,0.05,46.95,0)" xlink:href="#ab"/><use transform="matrix(0.05,0,0,0.05,60.95,0)" xlink:href="#R"/><use transform="matrix(0.05,0,0,0.05,70.95,0)" xlink:href="#ac"/><use transform="matrix(0.05,0,0,0.05,74.9,0)" xlink:href="#N"/><use transform="matrix(0.05,0,0,0.05,84.9,0)" xlink:href="#ad"/><use transform="matrix(0.05,0,0,0.05,93.9,0)" xlink:href="#M"/><use transform="matrix(0.05,0,0,0.05,98.9,0)" xlink:href="#K"/><use transform="matrix(0.05,0,0,0.05,110.9,0)" xlink:href="#L"/><use transform="matrix(0.05,0,0,0.05,119.9,0)" xlink:href="#M"/><use transform="matrix(0.05,0,0,0.05,124.9,0)" xlink:href="#N"/><use transform="matrix(0.05,0,0,0.05,134.9,0)" xlink:href="#O"/><use transform="matrix(0.05,0,0,0.05,144.9,0)" xlink:href="#P"/><use transform="matrix(0.05,0,0,0.05,153.9,0)" xlink:href="#Q"/><use transform="matrix(0.05,0,0,0.05,157.85,0)" xlink:href="#V"/><use transform="matrix(0.05,0,0,0.05,167.85,0)" xlink:href="#O"/><use transform="matrix(0.05,0,0,0.05,177.85,0)" xlink:href="#P"/></g><g id="e"><use transform="matrix(0.05,0,0,0.05,0,0)" xlink:href="#K"/><use transform="matrix(0.05,0,0,0.05,12,0)" xlink:href="#L"/><use transform="matrix(0.05,0,0,0.05,21,0)" xlink:href="#M"/><use transform="matrix(0.05,0,0,0.05,26,0)" xlink:href="#N"/><use transform="matrix(0.05,0,0,0.05,36,0)" xlink:href="#O"/><use transform="matrix(0.05,0,0,0.05,46,0)" xlink:href="#P"/><use transform="matrix(0.05,0,0,0.05,55,0)" xlink:href="#Q"/><use transform="matrix(0.05,0,0,0.05,58.95,0)" xlink:href="#V"/><use transform="matrix(0.05,0,0,0.05,68.95,0)" xlink:href="#O"/><use transform="matrix(0.05,0,0,0.05,78.95,0)" xlink:href="#P"/></g><g id="f"><use transform="matrix(0.05,0,0,0.05,0,0)" xlink:href="#X"/><use transform="matrix(0.05,0,0,0.05,10,0)" xlink:href="#Y"/><use transform="matrix(0.05,0,0,0.05,22.950000000000003,0)" xlink:href="#Z"/><use transform="matrix(0.05,0,0,0.05,34.95,0)" xlink:href="#aa"/></g><g id="g"><use transform="matrix(0.05,0,0,0.05,0,0)" xlink:href="#X"/><use transform="matrix(0.05,0,0,0.05,10,0)" xlink:href="#Y"/><use transform="matrix(0.05,0,0,0.05,22.950000000000003,0)" xlink:href="#Z"/><use transform="matrix(0.05,0,0,0.05,34.95,0)" xlink:href="#aa"/><use transform="matrix(0.05,0,0,0.05,46.95,0)" xlink:href="#ab"/><use transform="matrix(0.05,0,0,0.05,60.95,0)" xlink:href="#R"/><use transform="matrix(0.05,0,0,0.05,70.95,0)" xlink:href="#ac"/><use transform="matrix(0.05,0,0,0.05,74.9,0)" xlink:href="#N"/><use transform="matrix(0.05,0,0,0.05,84.9,0)" xlink:href="#ad"/><use transform="matrix(0.05,0,0,0.05,93.9,0)" xlink:href="#M"/></g><g id="h"><use transform="matrix(0.05,0,0,0.05,0,0)" xlink:href="#X"/><use transform="matrix(0.05,0,0,0.05,10,0)" xlink:href="#Y"/><use transform="matrix(0.05,0,0,0.05,22.950000000000003,0)" xlink:href="#Z"/><use transform="matrix(0.05,0,0,0.05,34.95,0)" xlink:href="#aa"/></g><g id="i"><use transform="matrix(0.05,0,0,0.05,0,0)" xlink:href="#Q"/><use transform="matrix(0.05,0,0,0.05,3.95,0)" xlink:href="#O"/><use transform="matrix(0.05,0,0,0.05,13.949999999999998,0)" xlink:href="#P"/><use transform="matrix(0.05,0,0,0.05,22.95,0)" xlink:href="#M"/><use transform="matrix(0.05,0,0,0.05,27.950000000000003,0)" xlink:href="#U"/><use transform="matrix(0.05,0,0,0.05,37.95,0)" xlink:href="#O"/><use transform="matrix(0.05,0,0,0.05,47.95,0)" xlink:href="#ad"/><use transform="matrix(0.05,0,0,0.05,56.95,0)" xlink:href="#N"/><use transform="matrix(0.05,0,0,0.05,66.95,0)" xlink:href="#P"/></g><g id="j"><use transform="matrix(0.05,0,0,0.05,0,0)" xlink:href="#Q"/><use transform="matrix(0.05,0,0,0.05,3.95,0)" xlink:href="#O"/><use transform="matrix(0.05,0,0,0.05,13.949999999999998,0)" xlink:href="#P"/><use transform="matrix(0.05,0,0,0.05,22.95,0)" xlink:href="#M"/><use transform="matrix(0.05,0,0,0.05,27.950000000000003,0)" xlink:href="#U"/><use transform="matrix(0.05,0,0,0.05,37.95,0)" xlink:href="#O"/><use transform="matrix(0.05,0,0,0.05,47.95,0)" xlink:href="#M"/><use transform="matrix(0.05,0,0,0.05,52.95,0)" xlink:href="#Q"/><use transform="matrix(0.05,0,0,0.05,56.900000000000006,0)" xlink:href="#U"/><use transform="matrix(0.05,0,0,0.05,66.9,0)" xlink:href="#M"/><use transform="matrix(0.05,0,0,0.05,71.9,0)" xlink:href="#N"/><use transform="matrix(0.05,0,0,0.05,81.9,0)" xlink:href="#P"/></g><g id="k"><use transform="matrix(0.05,0,0,0.05,0,0)" xlink:href="#X"/><use transform="matrix(0.05,0,0,0.05,10,0)" xlink:href="#Y"/><use transform="matrix(0.05,0,0,0.05,22.950000000000003,0)" xlink:href="#Z"/><use transform="matrix(0.05,0,0,0.05,34.95,0)" xlink:href="#aa"/><use transform="matrix(0.05,0,0,0.05,46.95,0)" xlink:href="#ab"/><use transform="matrix(0.05,0,0,0.05,60.95,0)" xlink:href="#R"/><use transform="matrix(0.05,0,0,0.05,70.95,0)" xlink:href="#ac"/><use transform="matrix(0.05,0,0,0.05,74.9,0)" xlink:href="#N"/><use transform="matrix(0.05,0,0,0.05,84.9,0)" xlink:href="#ad"/><use transform="matrix(0.05,0,0,0.05,93.9,0)" xlink:href="#M"/></g><path d="M114-163C36-179 61-72 57 0H25l-1-190h30c1 12-1 29 2 39 6-27 23-49 58-41v29" id="ae"/><g id="l"><use transform="matrix(0.05,0,0,0.05,0,0)" xlink:href="#ad"/><use transform="matrix(0.05,0,0,0.05,9,0)" xlink:href="#ae"/><use transform="matrix(0.05,0,0,0.05,14.949999999999998,0)" xlink:href="#N"/><use transform="matrix(0.05,0,0,0.05,24.95,0)" xlink:href="#U"/><use transform="matrix(0.05,0,0,0.05,34.95,0)" xlink:href="#M"/><use transform="matrix(0.05,0,0,0.05,39.95,0)" xlink:href="#N"/><use transform="matrix(0.05,0,0,0.05,49.95,0)" xlink:href="#P"/></g><g id="m"><use transform="matrix(0.05,0,0,0.05,0,0)" xlink:href="#N"/><use transform="matrix(0.05,0,0,0.05,10,0)" xlink:href="#L"/><use transform="matrix(0.05,0,0,0.05,19,0)" xlink:href="#M"/><use transform="matrix(0.05,0,0,0.05,24,0)" xlink:href="#N"/><use transform="matrix(0.05,0,0,0.05,34,0)" xlink:href="#O"/><use transform="matrix(0.05,0,0,0.05,44,0)" xlink:href="#P"/><use transform="matrix(0.05,0,0,0.05,53,0)" xlink:href="#Q"/><use transform="matrix(0.05,0,0,0.05,56.95,0)" xlink:href="#V"/><use transform="matrix(0.05,0,0,0.05,66.95,0)" xlink:href="#O"/><use transform="matrix(0.05,0,0,0.05,76.95,0)" xlink:href="#P"/></g><g id="n"><use transform="matrix(0.05,0,0,0.05,0,0)" xlink:href="#Q"/><use transform="matrix(0.05,0,0,0.05,3.95,0)" xlink:href="#O"/><use transform="matrix(0.05,0,0,0.05,13.949999999999998,0)" xlink:href="#P"/><use transform="matrix(0.05,0,0,0.05,22.95,0)" xlink:href="#M"/><use transform="matrix(0.05,0,0,0.05,27.950000000000003,0)" xlink:href="#U"/><use transform="matrix(0.05,0,0,0.05,37.95,0)" xlink:href="#O"/><use transform="matrix(0.05,0,0,0.05,47.95,0)" xlink:href="#ad"/><use transform="matrix(0.05,0,0,0.05,56.95,0)" xlink:href="#N"/></g><path d="M232-93c-1 65-40 97-104 97C67 4 28-28 28-90v-158h33c8 89-33 224 67 224 102 0 64-133 71-224h33v155" id="af"/><g id="o"><use transform="matrix(0.05,0,0,0.05,0,0)" xlink:href="#af"/><use transform="matrix(0.05,0,0,0.05,12.950000000000001,0)" xlink:href="#P"/><use transform="matrix(0.05,0,0,0.05,21.950000000000003,0)" xlink:href="#N"/><use transform="matrix(0.05,0,0,0.05,31.950000000000003,0)" xlink:href="#ae"/></g><g id="p"><use transform="matrix(0.05,0,0,0.05,0,0)" xlink:href="#ad"/><use transform="matrix(0.05,0,0,0.05,9,0)" xlink:href="#ae"/><use transform="matrix(0.05,0,0,0.05,14.949999999999998,0)" xlink:href="#N"/><use transform="matrix(0.05,0,0,0.05,24.95,0)" xlink:href="#U"/><use transform="matrix(0.05,0,0,0.05,34.95,0)" xlink:href="#M"/><use transform="matrix(0.05,0,0,0.05,39.95,0)" xlink:href="#N"/><use transform="matrix(0.05,0,0,0.05,49.95,0)" xlink:href="#P"/></g><path d="M101-234c-31-9-42 10-38 44h38v23H63V0H32v-167H5v-23h27c-7-52 17-82 69-68v24" id="ag"/><g id="q"><use transform="matrix(0.05,0,0,0.05,0,0)" xlink:href="#ae"/><use transform="matrix(0.05,0,0,0.05,5.95,0)" xlink:href="#N"/><use transform="matrix(0.05,0,0,0.05,15.949999999999998,0)" xlink:href="#ag"/><use transform="matrix(0.05,0,0,0.05,20.95,0)" xlink:href="#N"/><use transform="matrix(0.05,0,0,0.05,30.950000000000003,0)" xlink:href="#ae"/><use transform="matrix(0.05,0,0,0.05,36.9,0)" xlink:href="#N"/><use transform="matrix(0.05,0,0,0.05,46.9,0)" xlink:href="#O"/><use transform="matrix(0.05,0,0,0.05,56.900000000000006,0)" xlink:href="#ad"/><use transform="matrix(0.05,0,0,0.05,65.9,0)" xlink:href="#N"/><use transform="matrix(0.05,0,0,0.05,75.9,0)" xlink:href="#P"/></g><g id="r"><use transform="matrix(0.05,0,0,0.05,0,0)" xlink:href="#K"/><use transform="matrix(0.05,0,0,0.05,12,0)" xlink:href="#L"/><use transform="matrix(0.05,0,0,0.05,21,0)" xlink:href="#M"/><use transform="matrix(0.05,0,0,0.05,26,0)" xlink:href="#N"/><use transform="matrix(0.05,0,0,0.05,36,0)" xlink:href="#O"/><use transform="matrix(0.05,0,0,0.05,46,0)" xlink:href="#P"/><use transform="matrix(0.05,0,0,0.05,55,0)" xlink:href="#Q"/><use transform="matrix(0.05,0,0,0.05,58.95,0)" xlink:href="#R"/><use transform="matrix(0.05,0,0,0.05,68.95,0)" xlink:href="#S"/><use transform="matrix(0.05,0,0,0.05,72.9,0)" xlink:href="#N"/></g><path d="M84 4C-5 8 30-112 23-190h32v120c0 31 7 50 39 49 72-2 45-101 50-169h31l1 190h-30c-1-10 1-25-2-33-11 22-28 36-60 37" id="ah"/><g id="s"><use transform="matrix(0.05,0,0,0.05,0,0)" xlink:href="#X"/><use transform="matrix(0.05,0,0,0.05,10,0)" xlink:href="#U"/><use transform="matrix(0.05,0,0,0.05,20,0)" xlink:href="#ah"/><use transform="matrix(0.05,0,0,0.05,30,0)" xlink:href="#ae"/><use transform="matrix(0.05,0,0,0.05,35.95,0)" xlink:href="#N"/><use transform="matrix(0.05,0,0,0.05,45.95,0)" xlink:href="#S"/><use transform="matrix(0.05,0,0,0.05,49.900000000000006,0)" xlink:href="#Q"/><use transform="matrix(0.05,0,0,0.05,53.85,0)" xlink:href="#O"/><use transform="matrix(0.05,0,0,0.05,63.85,0)" xlink:href="#K"/><use transform="matrix(0.05,0,0,0.05,75.85000000000001,0)" xlink:href="#L"/><use transform="matrix(0.05,0,0,0.05,84.85000000000001,0)" xlink:href="#M"/><use transform="matrix(0.05,0,0,0.05,89.85000000000001,0)" xlink:href="#N"/><use transform="matrix(0.05,0,0,0.05,99.85000000000001,0)" xlink:href="#O"/><use transform="matrix(0.05,0,0,0.05,109.85000000000001,0)" xlink:href="#P"/><use transform="matrix(0.05,0,0,0.05,118.85000000000001,0)" xlink:href="#Q"/><use transform="matrix(0.05,0,0,0.05,122.80000000000001,0)" xlink:href="#V"/><use transform="matrix(0.05,0,0,0.05,132.8,0)" xlink:href="#O"/></g><g id="t"><use transform="matrix(0.05,0,0,0.05,0,0)" xlink:href="#ad"/><use transform="matrix(0.05,0,0,0.05,9,0)" xlink:href="#ae"/><use transform="matrix(0.05,0,0,0.05,14.949999999999998,0)" xlink:href="#N"/><use transform="matrix(0.05,0,0,0.05,24.95,0)" xlink:href="#U"/><use transform="matrix(0.05,0,0,0.05,34.95,0)" xlink:href="#M"/><use transform="matrix(0.05,0,0,0.05,39.95,0)" xlink:href="#N"/><use transform="matrix(0.05,0,0,0.05,49.95,0)" xlink:href="#P"/></g><g id="u"><use transform="matrix(0.05,0,0,0.05,0,0)" xlink:href="#X"/><use transform="matrix(0.05,0,0,0.05,10,0)" xlink:href="#U"/><use transform="matrix(0.05,0,0,0.05,20,0)" xlink:href="#ah"/><use transform="matrix(0.05,0,0,0.05,30,0)" xlink:href="#ae"/><use transform="matrix(0.05,0,0,0.05,35.95,0)" xlink:href="#N"/><use transform="matrix(0.05,0,0,0.05,45.95,0)" xlink:href="#S"/><use transform="matrix(0.05,0,0,0.05,49.900000000000006,0)" xlink:href="#Q"/><use transform="matrix(0.05,0,0,0.05,53.85,0)" xlink:href="#O"/><use transform="matrix(0.05,0,0,0.05,63.85,0)" xlink:href="#X"/><use transform="matrix(0.05,0,0,0.05,73.85000000000001,0)" xlink:href="#Y"/><use transform="matrix(0.05,0,0,0.05,86.80000000000001,0)" xlink:href="#Z"/><use transform="matrix(0.05,0,0,0.05,98.80000000000001,0)" xlink:href="#aa"/><use transform="matrix(0.05,0,0,0.05,110.80000000000001,0)" xlink:href="#ab"/><use transform="matrix(0.05,0,0,0.05,124.80000000000001,0)" xlink:href="#R"/><use transform="matrix(0.05,0,0,0.05,134.8,0)" xlink:href="#ac"/><use transform="matrix(0.05,0,0,0.05,138.75,0)" xlink:href="#N"/><use transform="matrix(0.05,0,0,0.05,148.75,0)" xlink:href="#ad"/><use transform="matrix(0.05,0,0,0.05,157.75,0)" xlink:href="#M"/><use transform="matrix(0.05,0,0,0.05,162.75,0)" xlink:href="#K"/><use transform="matrix(0.05,0,0,0.05,174.75,0)" xlink:href="#L"/><use transform="matrix(0.05,0,0,0.05,183.75,0)" xlink:href="#M"/><use transform="matrix(0.05,0,0,0.05,188.75,0)" xlink:href="#N"/><use transform="matrix(0.05,0,0,0.05,198.75,0)" xlink:href="#O"/><use transform="matrix(0.05,0,0,0.05,208.75,0)" xlink:href="#P"/><use transform="matrix(0.05,0,0,0.05,217.75,0)" xlink:href="#Q"/><use transform="matrix(0.05,0,0,0.05,221.69999999999996,0)" xlink:href="#V"/><use transform="matrix(0.05,0,0,0.05,231.69999999999996,0)" xlink:href="#O"/></g><g id="v"><use transform="matrix(0.05,0,0,0.05,0,0)" xlink:href="#X"/><use transform="matrix(0.05,0,0,0.05,10,0)" xlink:href="#U"/><use transform="matrix(0.05,0,0,0.05,20,0)" xlink:href="#ah"/><use transform="matrix(0.05,0,0,0.05,30,0)" xlink:href="#ae"/><use transform="matrix(0.05,0,0,0.05,35.95,0)" xlink:href="#N"/><use transform="matrix(0.05,0,0,0.05,45.95,0)" xlink:href="#S"/><use transform="matrix(0.05,0,0,0.05,49.900000000000006,0)" xlink:href="#Q"/><use transform="matrix(0.05,0,0,0.05,53.85,0)" xlink:href="#O"/><use transform="matrix(0.05,0,0,0.05,63.85,0)" xlink:href="#X"/><use transform="matrix(0.05,0,0,0.05,73.85000000000001,0)" xlink:href="#Y"/><use transform="matrix(0.05,0,0,0.05,86.80000000000001,0)" xlink:href="#Z"/><use transform="matrix(0.05,0,0,0.05,98.80000000000001,0)" xlink:href="#aa"/><use transform="matrix(0.05,0,0,0.05,110.80000000000001,0)" xlink:href="#K"/><use transform="matrix(0.05,0,0,0.05,122.80000000000001,0)" xlink:href="#L"/><use transform="matrix(0.05,0,0,0.05,131.8,0)" xlink:href="#M"/><use transform="matrix(0.05,0,0,0.05,136.8,0)" xlink:href="#N"/><use transform="matrix(0.05,0,0,0.05,146.8,0)" xlink:href="#O"/><use transform="matrix(0.05,0,0,0.05,156.8,0)" xlink:href="#P"/><use transform="matrix(0.05,0,0,0.05,165.8,0)" xlink:href="#Q"/><use transform="matrix(0.05,0,0,0.05,169.75,0)" xlink:href="#V"/><use transform="matrix(0.05,0,0,0.05,179.75,0)" xlink:href="#O"/></g><g id="w"><use transform="matrix(0.05,0,0,0.05,0,0)" xlink:href="#W"/><use transform="matrix(0.05,0,0,0.05,12,0)" xlink:href="#U"/><use transform="matrix(0.05,0,0,0.05,22,0)" xlink:href="#P"/><use transform="matrix(0.05,0,0,0.05,31,0)" xlink:href="#N"/><use transform="matrix(0.05,0,0,0.05,41,0)" xlink:href="#X"/><use transform="matrix(0.05,0,0,0.05,51,0)" xlink:href="#U"/><use transform="matrix(0.05,0,0,0.05,61,0)" xlink:href="#ah"/><use transform="matrix(0.05,0,0,0.05,71,0)" xlink:href="#ae"/><use transform="matrix(0.05,0,0,0.05,76.95,0)" xlink:href="#N"/><use transform="matrix(0.05,0,0,0.05,86.95,0)" xlink:href="#S"/><use transform="matrix(0.05,0,0,0.05,90.9,0)" xlink:href="#Q"/><use transform="matrix(0.05,0,0,0.05,94.85000000000001,0)" xlink:href="#O"/><use transform="matrix(0.05,0,0,0.05,104.85000000000001,0)" xlink:href="#K"/><use transform="matrix(0.05,0,0,0.05,116.85000000000001,0)" xlink:href="#L"/><use transform="matrix(0.05,0,0,0.05,125.85000000000001,0)" xlink:href="#M"/><use transform="matrix(0.05,0,0,0.05,130.85000000000002,0)" xlink:href="#N"/><use transform="matrix(0.05,0,0,0.05,140.85000000000002,0)" xlink:href="#O"/><use transform="matrix(0.05,0,0,0.05,150.85000000000002,0)" xlink:href="#P"/><use transform="matrix(0.05,0,0,0.05,159.85000000000002,0)" xlink:href="#Q"/><use transform="matrix(0.05,0,0,0.05,163.8,0)" xlink:href="#V"/><use transform="matrix(0.05,0,0,0.05,173.8,0)" xlink:href="#O"/></g><g id="x"><use transform="matrix(0.05,0,0,0.05,0,0)" xlink:href="#W"/><use transform="matrix(0.05,0,0,0.05,12,0)" xlink:href="#U"/><use transform="matrix(0.05,0,0,0.05,22,0)" xlink:href="#P"/><use transform="matrix(0.05,0,0,0.05,31,0)" xlink:href="#N"/><use transform="matrix(0.05,0,0,0.05,41,0)" xlink:href="#X"/><use transform="matrix(0.05,0,0,0.05,51,0)" xlink:href="#U"/><use transform="matrix(0.05,0,0,0.05,61,0)" xlink:href="#ah"/><use transform="matrix(0.05,0,0,0.05,71,0)" xlink:href="#ae"/><use transform="matrix(0.05,0,0,0.05,76.95,0)" xlink:href="#N"/><use transform="matrix(0.05,0,0,0.05,86.95,0)" xlink:href="#S"/><use transform="matrix(0.05,0,0,0.05,90.9,0)" xlink:href="#Q"/><use transform="matrix(0.05,0,0,0.05,94.85000000000001,0)" xlink:href="#O"/><use transform="matrix(0.05,0,0,0.05,104.85000000000001,0)" xlink:href="#X"/><use transform="matrix(0.05,0,0,0.05,114.85000000000001,0)" xlink:href="#Y"/><use transform="matrix(0.05,0,0,0.05,127.80000000000001,0)" xlink:href="#Z"/><use transform="matrix(0.05,0,0,0.05,139.8,0)" xlink:href="#aa"/><use transform="matrix(0.05,0,0,0.05,151.8,0)" xlink:href="#ab"/><use transform="matrix(0.05,0,0,0.05,165.8,0)" xlink:href="#R"/><use transform="matrix(0.05,0,0,0.05,175.8,0)" xlink:href="#ac"/><use transform="matrix(0.05,0,0,0.05,179.75,0)" xlink:href="#N"/><use transform="matrix(0.05,0,0,0.05,189.75,0)" xlink:href="#ad"/><use transform="matrix(0.05,0,0,0.05,198.75,0)" xlink:href="#M"/><use transform="matrix(0.05,0,0,0.05,203.75,0)" xlink:href="#K"/><use transform="matrix(0.05,0,0,0.05,215.75,0)" xlink:href="#L"/><use transform="matrix(0.05,0,0,0.05,224.75,0)" xlink:href="#M"/><use transform="matrix(0.05,0,0,0.05,229.75,0)" xlink:href="#N"/><use transform="matrix(0.05,0,0,0.05,239.75,0)" xlink:href="#O"/><use transform="matrix(0.05,0,0,0.05,249.75,0)" xlink:href="#P"/><use transform="matrix(0.05,0,0,0.05,258.75,0)" xlink:href="#Q"/><use transform="matrix(0.05,0,0,0.05,262.7,0)" xlink:href="#V"/><use transform="matrix(0.05,0,0,0.05,272.7,0)" xlink:href="#O"/></g><g id="y"><use transform="matrix(0.05,0,0,0.05,0,0)" xlink:href="#W"/><use transform="matrix(0.05,0,0,0.05,12,0)" xlink:href="#U"/><use transform="matrix(0.05,0,0,0.05,22,0)" xlink:href="#P"/><use transform="matrix(0.05,0,0,0.05,31,0)" xlink:href="#N"/><use transform="matrix(0.05,0,0,0.05,41,0)" xlink:href="#X"/><use transform="matrix(0.05,0,0,0.05,51,0)" xlink:href="#U"/><use transform="matrix(0.05,0,0,0.05,61,0)" xlink:href="#ah"/><use transform="matrix(0.05,0,0,0.05,71,0)" xlink:href="#ae"/><use transform="matrix(0.05,0,0,0.05,76.95,0)" xlink:href="#N"/><use transform="matrix(0.05,0,0,0.05,86.95,0)" xlink:href="#S"/><use transform="matrix(0.05,0,0,0.05,90.9,0)" xlink:href="#Q"/><use transform="matrix(0.05,0,0,0.05,94.85000000000001,0)" xlink:href="#O"/><use transform="matrix(0.05,0,0,0.05,104.85000000000001,0)" xlink:href="#X"/><use transform="matrix(0.05,0,0,0.05,114.85000000000001,0)" xlink:href="#Y"/><use transform="matrix(0.05,0,0,0.05,127.80000000000001,0)" xlink:href="#Z"/><use transform="matrix(0.05,0,0,0.05,139.8,0)" xlink:href="#aa"/><use transform="matrix(0.05,0,0,0.05,151.8,0)" xlink:href="#K"/><use transform="matrix(0.05,0,0,0.05,163.8,0)" xlink:href="#L"/><use transform="matrix(0.05,0,0,0.05,172.8,0)" xlink:href="#M"/><use transform="matrix(0.05,0,0,0.05,177.8,0)" xlink:href="#N"/><use transform="matrix(0.05,0,0,0.05,187.8,0)" xlink:href="#P"/><use transform="matrix(0.05,0,0,0.05,196.8,0)" xlink:href="#O"/><use transform="matrix(0.05,0,0,0.05,206.8,0)" xlink:href="#Q"/><use transform="matrix(0.05,0,0,0.05,210.75,0)" xlink:href="#V"/><use transform="matrix(0.05,0,0,0.05,220.75,0)" xlink:href="#O"/></g><path d="M185-189c-5-48-123-54-124 2 14 75 158 14 163 119 3 78-121 87-175 55-17-10-28-26-33-46l33-7c5 56 141 63 141-1 0-78-155-14-162-118-5-82 145-84 179-34 5 7 8 16 11 25" id="ai"/><path d="M106-169C34-169 62-67 57 0H25v-261h32l-1 103c12-21 28-36 61-36 89 0 53 116 60 194h-32v-121c2-32-8-49-39-48" id="aj"/><path d="M210-169c-67 3-38 105-44 169h-31v-121c0-29-5-50-35-48C34-165 62-65 56 0H25l-1-190h30c1 10-1 24 2 32 10-44 99-50 107 0 11-21 27-35 58-36 85-2 47 119 55 194h-31v-121c0-29-5-49-35-48" id="ak"/><g id="z"><use transform="matrix(0.05,0,0,0.05,0,0)" xlink:href="#X"/><use transform="matrix(0.05,0,0,0.05,10,0)" xlink:href="#U"/><use transform="matrix(0.05,0,0,0.05,20,0)" xlink:href="#ah"/><use transform="matrix(0.05,0,0,0.05,30,0)" xlink:href="#ae"/><use transform="matrix(0.05,0,0,0.05,35.95,0)" xlink:href="#N"/><use transform="matrix(0.05,0,0,0.05,45.95,0)" xlink:href="#S"/><use transform="matrix(0.05,0,0,0.05,49.900000000000006,0)" xlink:href="#Q"/><use transform="matrix(0.05,0,0,0.05,53.85,0)" xlink:href="#O"/><use transform="matrix(0.05,0,0,0.05,63.85,0)" xlink:href="#ai"/><use transform="matrix(0.05,0,0,0.05,75.85000000000001,0)" xlink:href="#ad"/><use transform="matrix(0.05,0,0,0.05,84.85000000000001,0)" xlink:href="#aj"/><use transform="matrix(0.05,0,0,0.05,94.85000000000001,0)" xlink:href="#N"/><use transform="matrix(0.05,0,0,0.05,104.85000000000001,0)" xlink:href="#ak"/><use transform="matrix(0.05,0,0,0.05,119.80000000000001,0)" xlink:href="#U"/></g><g id="A"><use transform="matrix(0.05,0,0,0.05,0,0)" xlink:href="#X"/><use transform="matrix(0.05,0,0,0.05,10,0)" xlink:href="#U"/><use transform="matrix(0.05,0,0,0.05,20,0)" xlink:href="#ah"/><use transform="matrix(0.05,0,0,0.05,30,0)" xlink:href="#ae"/><use transform="matrix(0.05,0,0,0.05,35.95,0)" xlink:href="#N"/><use transform="matrix(0.05,0,0,0.05,45.95,0)" xlink:href="#S"/><use transform="matrix(0.05,0,0,0.05,49.900000000000006,0)" xlink:href="#Q"/><use transform="matrix(0.05,0,0,0.05,53.85,0)" xlink:href="#O"/><use transform="matrix(0.05,0,0,0.05,63.85,0)" xlink:href="#T"/><use transform="matrix(0.05,0,0,0.05,76.80000000000001,0)" xlink:href="#V"/><use transform="matrix(0.05,0,0,0.05,86.80000000000001,0)" xlink:href="#O"/><use transform="matrix(0.05,0,0,0.05,96.80000000000001,0)" xlink:href="#M"/><use transform="matrix(0.05,0,0,0.05,101.80000000000001,0)" xlink:href="#ae"/><use transform="matrix(0.05,0,0,0.05,107.75,0)" xlink:href="#V"/><use transform="matrix(0.05,0,0,0.05,117.75,0)" xlink:href="#S"/><use transform="matrix(0.05,0,0,0.05,121.7,0)" xlink:href="#P"/></g><path d="M85-194c31 0 48 13 60 33l-1-100h32l1 261h-30c-2-10 0-23-3-31C134-8 116 4 85 4 32 4 16-35 15-94c0-66 23-100 70-100zm9 24c-40 0-46 34-46 75 0 40 6 74 45 74 42 0 51-32 51-76 0-42-9-74-50-73" id="al"/><g id="B"><use transform="matrix(0.05,0,0,0.05,0,0)" xlink:href="#Q"/><use transform="matrix(0.05,0,0,0.05,3.95,0)" xlink:href="#O"/><use transform="matrix(0.05,0,0,0.05,13.949999999999998,0)" xlink:href="#al"/><use transform="matrix(0.05,0,0,0.05,23.95,0)" xlink:href="#Q"/><use transform="matrix(0.05,0,0,0.05,27.899999999999995,0)" xlink:href="#ae"/><use transform="matrix(0.05,0,0,0.05,33.85,0)" xlink:href="#N"/><use transform="matrix(0.05,0,0,0.05,43.85,0)" xlink:href="#ad"/><use transform="matrix(0.05,0,0,0.05,52.85,0)" xlink:href="#M"/></g><g id="C"><use transform="matrix(0.05,0,0,0.05,0,0)" xlink:href="#W"/><use transform="matrix(0.05,0,0,0.05,12,0)" xlink:href="#U"/><use transform="matrix(0.05,0,0,0.05,22,0)" xlink:href="#P"/><use transform="matrix(0.05,0,0,0.05,31,0)" xlink:href="#N"/><use transform="matrix(0.05,0,0,0.05,41,0)" xlink:href="#X"/><use transform="matrix(0.05,0,0,0.05,51,0)" xlink:href="#U"/><use transform="matrix(0.05,0,0,0.05,61,0)" xlink:href="#ah"/><use transform="matrix(0.05,0,0,0.05,71,0)" xlink:href="#ae"/><use transform="matrix(0.05,0,0,0.05,76.95,0)" xlink:href="#N"/><use transform="matrix(0.05,0,0,0.05,86.95,0)" xlink:href="#S"/><use transform="matrix(0.05,0,0,0.05,90.9,0)" xlink:href="#Q"/><use transform="matrix(0.05,0,0,0.05,94.85000000000001,0)" xlink:href="#O"/><use transform="matrix(0.05,0,0,0.05,104.85000000000001,0)" xlink:href="#ai"/><use transform="matrix(0.05,0,0,0.05,116.85000000000001,0)" xlink:href="#ad"/><use transform="matrix(0.05,0,0,0.05,125.85000000000001,0)" xlink:href="#aj"/><use transform="matrix(0.05,0,0,0.05,135.85000000000002,0)" xlink:href="#N"/><use transform="matrix(0.05,0,0,0.05,145.85000000000002,0)" xlink:href="#ak"/><use transform="matrix(0.05,0,0,0.05,160.8,0)" xlink:href="#U"/></g><g id="D"><use transform="matrix(0.05,0,0,0.05,0,0)" xlink:href="#W"/><use transform="matrix(0.05,0,0,0.05,12,0)" xlink:href="#U"/><use transform="matrix(0.05,0,0,0.05,22,0)" xlink:href="#P"/><use transform="matrix(0.05,0,0,0.05,31,0)" xlink:href="#N"/><use transform="matrix(0.05,0,0,0.05,41,0)" xlink:href="#X"/><use transform="matrix(0.05,0,0,0.05,51,0)" xlink:href="#U"/><use transform="matrix(0.05,0,0,0.05,61,0)" xlink:href="#ah"/><use transform="matrix(0.05,0,0,0.05,71,0)" xlink:href="#ae"/><use transform="matrix(0.05,0,0,0.05,76.95,0)" xlink:href="#N"/><use transform="matrix(0.05,0,0,0.05,86.95,0)" xlink:href="#S"/><use transform="matrix(0.05,0,0,0.05,90.9,0)" xlink:href="#Q"/><use transform="matrix(0.05,0,0,0.05,94.85000000000001,0)" xlink:href="#O"/><use transform="matrix(0.05,0,0,0.05,104.85000000000001,0)" xlink:href="#T"/><use transform="matrix(0.05,0,0,0.05,117.80000000000001,0)" xlink:href="#V"/><use transform="matrix(0.05,0,0,0.05,127.80000000000001,0)" xlink:href="#O"/><use transform="matrix(0.05,0,0,0.05,137.8,0)" xlink:href="#M"/><use transform="matrix(0.05,0,0,0.05,142.8,0)" xlink:href="#ae"/><use transform="matrix(0.05,0,0,0.05,148.75,0)" xlink:href="#V"/><use transform="matrix(0.05,0,0,0.05,158.75,0)" xlink:href="#S"/><use transform="matrix(0.05,0,0,0.05,162.7,0)" xlink:href="#P"/></g><path d="M16-82v-28h88v28H16" id="am"/><path d="M177-190C167-65 218 103 67 71c-23-6-38-20-44-43l32-5c15 47 100 32 89-28v-30C133-14 115 1 83 1 29 1 15-40 15-95c0-56 16-97 71-98 29-1 48 16 59 35 1-10 0-23 2-32h30zM94-22c36 0 50-32 50-73 0-42-14-75-50-75-39 0-46 34-46 75s6 73 46 73" id="an"/><g id="E"><use transform="matrix(0.05,0,0,0.05,0,0)" xlink:href="#Z"/><use transform="matrix(0.05,0,0,0.05,12,0)" xlink:href="#ah"/><use transform="matrix(0.05,0,0,0.05,22,0)" xlink:href="#M"/><use transform="matrix(0.05,0,0,0.05,27,0)" xlink:href="#V"/><use transform="matrix(0.05,0,0,0.05,37,0)" xlink:href="#am"/><use transform="matrix(0.05,0,0,0.05,42.95,0)" xlink:href="#an"/><use transform="matrix(0.05,0,0,0.05,52.95,0)" xlink:href="#N"/><use transform="matrix(0.05,0,0,0.05,62.95,0)" xlink:href="#O"/><use transform="matrix(0.05,0,0,0.05,72.95,0)" xlink:href="#N"/><use transform="matrix(0.05,0,0,0.05,82.95,0)" xlink:href="#ae"/><use transform="matrix(0.05,0,0,0.05,88.9,0)" xlink:href="#U"/><use transform="matrix(0.05,0,0,0.05,98.9,0)" xlink:href="#M"/><use transform="matrix(0.05,0,0,0.05,103.9,0)" xlink:href="#N"/><use transform="matrix(0.05,0,0,0.05,113.9,0)" xlink:href="#al"/></g><g id="F"><use transform="matrix(0.05,0,0,0.05,0,0)" xlink:href="#Y"/><use transform="matrix(0.05,0,0,0.05,12.950000000000001,0)" xlink:href="#N"/><use transform="matrix(0.05,0,0,0.05,22.950000000000003,0)" xlink:href="#ag"/><use transform="matrix(0.05,0,0,0.05,27.950000000000003,0)" xlink:href="#Q"/><use transform="matrix(0.05,0,0,0.05,31.900000000000002,0)" xlink:href="#O"/><use transform="matrix(0.05,0,0,0.05,41.900000000000006,0)" xlink:href="#N"/><use transform="matrix(0.05,0,0,0.05,51.900000000000006,0)" xlink:href="#al"/></g><g id="G"><use transform="matrix(0.05,0,0,0.05,0,0)" xlink:href="#Q"/><use transform="matrix(0.05,0,0,0.05,3.95,0)" xlink:href="#O"/></g><g id="H"><use transform="matrix(0.05,0,0,0.05,0,0)" xlink:href="#N"/><use transform="matrix(0.05,0,0,0.05,10,0)" xlink:href="#L"/><use transform="matrix(0.05,0,0,0.05,19,0)" xlink:href="#M"/><use transform="matrix(0.05,0,0,0.05,24,0)" xlink:href="#N"/><use transform="matrix(0.05,0,0,0.05,34,0)" xlink:href="#O"/><use transform="matrix(0.05,0,0,0.05,44,0)" xlink:href="#P"/><use transform="matrix(0.05,0,0,0.05,53,0)" xlink:href="#Q"/><use transform="matrix(0.05,0,0,0.05,56.95,0)" xlink:href="#V"/><use transform="matrix(0.05,0,0,0.05,66.95,0)" xlink:href="#O"/></g><g id="I"><use transform="matrix(0.05,0,0,0.05,0,0)" xlink:href="#ak"/><use transform="matrix(0.05,0,0,0.05,14.950000000000001,0)" xlink:href="#V"/><use transform="matrix(0.05,0,0,0.05,24.950000000000003,0)" xlink:href="#al"/><use transform="matrix(0.05,0,0,0.05,34.95,0)" xlink:href="#ah"/><use transform="matrix(0.05,0,0,0.05,44.95,0)" xlink:href="#S"/><use transform="matrix(0.05,0,0,0.05,48.900000000000006,0)" xlink:href="#N"/><use transform="matrix(0.05,0,0,0.05,58.900000000000006,0)" xlink:href="#P"/></g><path d="M194 0L95-120 63-95V0H30v-248h33v124l119-124h40L117-140 236 0h-42" id="ao"/><path d="M179-190L93 31C79 59 56 82 12 73V49c39 6 53-20 64-50L1-190h34L92-34l54-156h33" id="ap"/><g id="J"><use transform="matrix(0.05,0,0,0.05,0,0)" xlink:href="#ao"/><use transform="matrix(0.05,0,0,0.05,12,0)" xlink:href="#N"/><use transform="matrix(0.05,0,0,0.05,22,0)" xlink:href="#ap"/></g></defs></g></svg>